<?xml version="1.0" encoding="UTF-8" standalone="no"?>
<!DOCTYPE svg PUBLIC "-//W3C//DTD SVG 1.1//EN" "http://www.w3.org/Graphics/SVG/1.1/DTD/svg11.dtd">
<svg version="1.1" xmlns="http://www.w3.org/2000/svg" xmlns:xlink="http://www.w3.org/1999/xlink" preserveAspectRatio="xMidYMid meet" viewBox="0 0 640 640" width="240" height="240"><defs><path d="M640 320C640 496.61 496.61 640 320 640C143.39 640 0 496.61 0 320C0 143.39 143.39 0 320 0C496.61 0 640 143.39 640 320Z" id="a6HHnxAvdD"></path><path d="M100.36 155.08L100.8 155.11L101.25 155.14L103.66 155.18L106.08 155.21L108.5 155.25L110.93 155.27L113.35 155.3L115.78 155.32L118.21 155.35L120.64 155.37L123.07 155.39L125.5 155.41L127.93 155.43L130.36 155.45L132.8 155.47L135.23 155.49L137.67 155.52L140.11 155.54L142.54 155.57L144.98 155.6L147.42 155.64L149.85 155.68L152.29 155.72L154.73 155.77L157.16 155.82L159.6 155.88L162.04 155.94L164.47 156.01L166.91 156.08L169.34 156.16L171.77 156.25L174.21 156.35L176.64 156.45L179.07 156.57L181.5 156.69L183.93 156.82L186.35 156.96L188.78 157.11L191.2 157.27L193.62 157.45L196.04 157.63L198.46 157.83L201.84 158.1L205.23 158.35L208.61 158.58L211.99 158.79L215.38 158.98L218.76 159.16L222.14 159.31L225.53 159.46L228.91 159.59L232.29 159.71L235.67 159.81L239.05 159.9L242.43 159.99L245.81 160.06L249.19 160.13L252.57 160.19L255.94 160.24L259.32 160.29L262.69 160.34L266.07 160.38L269.44 160.42L272.81 160.46L276.18 160.49L279.55 160.53L282.92 160.57L286.29 160.62L289.66 160.67L293.02 160.72L296.38 160.78L299.75 160.85L303.11 160.92L306.46 161.01L309.82 161.1L313.18 161.2L316.53 161.32L319.88 161.45L323.23 161.6L326.58 161.75L329.93 161.93L333.27 162.12L335.17 162.23L337.06 162.33L338.95 162.4L340.85 162.45L342.74 162.49L344.63 162.51L346.53 162.52L348.42 162.51L350.32 162.49L352.21 162.46L354.11 162.41L356.01 162.35L357.9 162.29L359.8 162.21L361.7 162.12L363.6 162.03L365.5 161.93L367.4 161.82L369.3 161.7L371.2 161.59L373.11 161.46L375.01 161.34L376.92 161.21L378.83 161.08L380.74 160.95L382.64 160.82L384.56 160.69L386.47 160.56L388.38 160.43L390.3 160.31L392.21 160.19L394.13 160.08L396.05 159.97L397.97 159.87L399.9 159.77L401.82 159.69L403.75 159.61L405.68 159.54L407.61 159.48L409.54 159.44L412.88 159.36L416.04 159.29L419.04 159.23L421.88 159.19L424.56 159.17L427.09 159.18L429.47 159.21L431.71 159.27L433.81 159.38L435.77 159.52L437.61 159.71L439.32 159.95L440.91 160.24L442.38 160.59L443.74 161L444.99 161.48L446.14 162.03L447.19 162.65L448.15 163.35L449.02 164.14L449.8 165.01L450.51 165.97L451.13 167.02L451.69 168.18L452.18 169.43L452.61 170.8L452.98 172.28L453.3 173.87L453.57 175.58L453.8 177.41L453.99 179.38L454.14 181.47L454.26 183.7L454.36 186.07L454.44 188.59L454.5 191.25L454.54 194.07L454.58 197.04L454.62 200.18L454.66 203.48L454.69 206.53L454.72 209.39L454.75 212.07L454.78 214.58L454.81 216.92L454.85 219.09L454.9 221.11L454.97 222.98L455.06 224.71L455.17 226.29L455.31 227.74L455.47 229.06L455.68 230.26L455.91 231.34L456.2 232.31L456.52 233.18L456.9 233.95L457.32 234.62L457.81 235.2L458.35 235.71L458.96 236.13L459.63 236.49L460.37 236.78L461.19 237.01L462.09 237.18L463.07 237.31L464.13 237.4L465.29 237.45L466.53 237.47L467.87 237.47L469.32 237.44L470.86 237.41L472.52 237.36L474.28 237.32L476.16 237.27L478.16 237.24L480.29 237.22L482.53 237.22L484.91 237.25L487.42 237.32L489.03 237.36L490.65 237.4L492.26 237.45L493.88 237.49L495.5 237.54L497.12 237.6L498.74 237.65L500.37 237.71L501.99 237.77L503.62 237.83L505.24 237.89L506.87 237.96L508.5 238.03L510.13 238.1L511.76 238.18L513.39 238.25L515.02 238.33L516.65 238.42L518.28 238.5L519.91 238.59L521.55 238.68L523.18 238.78L524.81 238.88L526.44 238.98L528.07 239.08L529.7 239.19L531.33 239.3L532.96 239.42L534.59 239.54L536.21 239.66L537.84 239.78L539.46 239.91L541.09 240.04L542.71 240.18L544.33 240.32L545.95 240.46L547.57 240.61L549.18 240.76L550.8 240.92L552.41 241.08L552.69 241.12L552.99 241.19L553.29 241.27L553.59 241.36L553.9 241.47L554.22 241.59L554.54 241.72L554.86 241.87L555.19 242.03L555.51 242.2L555.84 242.38L556.17 242.57L556.5 242.78L556.82 242.99L557.15 243.21L557.47 243.44L557.79 243.68L558.1 243.92L558.41 244.17L558.72 244.43L559.02 244.7L559.31 244.97L559.6 245.24L559.87 245.52L560.14 245.81L560.4 246.1L560.65 246.39L560.88 246.68L561.11 246.97L561.32 247.27L561.52 247.57L561.71 247.87L561.88 248.16L562.03 248.46L562.18 248.76L562.3 249.05L562.41 249.35L562.49 249.64L562.56 249.92L562.61 250.21L562.81 251.42L563 252.62L563.19 253.83L563.37 255.04L563.55 256.25L563.72 257.46L563.88 258.67L564.04 259.88L564.2 261.09L564.35 262.3L564.5 263.51L564.64 264.72L564.78 265.94L564.91 267.15L565.04 268.36L565.17 269.58L565.29 270.79L565.41 272.01L565.52 273.23L565.63 274.44L565.74 275.66L565.85 276.88L565.95 278.1L566.06 279.33L566.15 280.55L566.25 281.78L566.35 283L566.44 284.23L566.53 285.46L566.62 286.69L566.7 287.92L566.79 289.15L566.88 290.39L566.96 291.63L567.04 292.86L567.12 294.1L567.21 295.35L567.29 296.59L567.37 297.84L567.45 299.08L567.51 300.43L567.54 301.74L567.53 303L567.48 304.23L567.4 305.41L567.28 306.55L567.12 307.65L566.93 308.71L566.7 309.73L566.43 310.71L566.13 311.66L565.79 312.56L565.41 313.42L565 314.25L564.55 315.04L564.06 315.79L563.54 316.5L562.98 317.18L562.38 317.82L561.74 318.42L561.07 318.98L560.36 319.51L559.61 320.01L558.82 320.47L558 320.89L557.14 321.28L556.24 321.64L555.31 321.96L554.33 322.24L553.32 322.5L552.28 322.72L551.19 322.9L550.06 323.06L548.9 323.18L547.7 323.27L546.46 323.33L545.19 323.36L543.87 323.35L542.52 323.32L541.13 323.25L540.41 323.21L539.68 323.17L538.96 323.13L538.24 323.09L537.53 323.05L536.81 323.01L536.1 322.98L535.38 322.94L534.67 322.9L533.96 322.87L533.25 322.83L532.54 322.8L531.84 322.77L531.13 322.73L530.42 322.71L529.72 322.68L529.01 322.65L528.31 322.63L527.6 322.6L526.9 322.58L526.19 322.56L525.49 322.55L524.78 322.53L524.08 322.52L523.37 322.51L522.66 322.5L521.96 322.5L521.25 322.49L520.54 322.49L519.83 322.5L519.12 322.5L518.41 322.51L517.7 322.53L516.98 322.54L516.27 322.56L515.55 322.59L514.83 322.61L514.11 322.64L513.39 322.68L512.66 322.72L511.25 322.76L509.85 322.8L508.44 322.85L507.04 322.89L505.64 322.94L504.24 322.99L502.84 323.05L501.44 323.1L500.04 323.16L498.65 323.22L497.25 323.28L495.86 323.34L494.47 323.41L493.08 323.48L491.69 323.55L490.29 323.62L488.9 323.69L487.51 323.77L486.12 323.84L484.73 323.92L483.34 324.01L481.95 324.09L480.56 324.17L479.17 324.26L477.78 324.35L476.39 324.44L475 324.54L473.61 324.63L472.21 324.73L470.82 324.83L469.42 324.93L468.03 325.04L466.63 325.14L465.23 325.25L463.83 325.36L462.43 325.47L461.03 325.58L459.62 325.7L458.21 325.82L456.81 325.94L456.81 393.08L556.71 393.08L556.71 395.13L556.71 397.18L556.71 399.22L556.72 401.26L556.73 403.3L556.74 405.33L556.75 407.36L556.76 409.39L556.77 411.41L556.78 413.43L556.79 415.44L556.81 417.45L556.82 419.46L556.83 421.47L556.85 423.47L556.86 425.46L556.87 427.46L556.89 429.45L556.9 431.44L556.91 433.43L556.92 435.41L556.93 437.39L556.93 439.36L556.94 441.34L556.94 443.31L556.94 445.28L556.94 447.24L556.94 449.2L556.94 451.16L556.93 453.12L556.92 455.08L556.91 457.03L556.9 458.98L556.88 460.93L556.86 462.87L556.84 464.82L556.81 466.76L556.78 468.7L556.74 470.63L556.71 472.57L556.7 473.09L556.7 473.61L556.68 474.13L556.66 474.65L556.64 475.17L556.6 475.68L556.56 476.19L556.5 476.7L556.44 477.2L556.36 477.69L556.27 478.18L556.17 478.66L556.05 479.13L555.92 479.6L555.77 480.05L555.61 480.5L555.42 480.93L555.22 481.36L555 481.77L554.76 482.17L554.5 482.55L554.21 482.93L553.9 483.28L553.57 483.63L553.22 483.95L552.84 484.26L552.43 484.56L551.99 484.83L551.53 485.09L551.04 485.33L550.52 485.55L549.97 485.75L549.39 485.93L548.77 486.08L548.12 486.22L547.44 486.33L546.72 486.42L545.97 486.48L545.18 486.52L544.35 486.53L539.8 486.49L535.24 486.46L530.69 486.44L526.13 486.42L521.57 486.4L517.01 486.39L512.45 486.38L507.88 486.38L503.32 486.38L498.75 486.39L494.18 486.4L489.61 486.41L485.04 486.43L480.47 486.44L475.9 486.46L471.33 486.49L466.76 486.51L462.19 486.54L457.62 486.57L453.05 486.6L448.47 486.63L443.9 486.66L439.33 486.69L434.76 486.72L430.19 486.76L425.62 486.79L421.05 486.82L416.48 486.85L411.91 486.88L407.34 486.91L402.78 486.94L398.21 486.96L393.65 486.98L389.08 487L384.52 487.02L379.96 487.04L375.4 487.05L370.85 487.06L366.29 487.07L361.74 487.07L361.46 487.07L361.17 487.07L360.89 487.08L360.61 487.08L360.33 487.09L360.05 487.1L359.76 487.11L359.48 487.12L359.2 487.13L358.64 487.15L358.35 487.16L358.07 487.16L357.79 487.17L357.51 487.18L357.23 487.19L356.94 487.19L356.66 487.2L356.38 487.2L356.1 487.2L355.82 487.2L355.54 487.2L355.25 487.19L354.97 487.18L354.69 487.17L354.41 487.16L354.13 487.14L353.84 487.12L353.56 487.1L353.28 487.07L353 487.04L352.72 487L352.43 486.96L352.15 486.91L351.87 486.86L351.59 486.81L351.31 486.75L351.02 486.68L350.74 486.61L350.46 486.53L350.3 486.49L350.13 486.43L349.96 486.37L349.79 486.29L349.61 486.21L349.44 486.12L349.26 486.03L349.08 485.93L348.9 485.82L348.72 485.7L348.54 485.58L348.37 485.45L348.19 485.32L348.02 485.19L347.84 485.05L347.68 484.91L347.51 484.76L347.35 484.62L347.19 484.47L347.04 484.32L346.89 484.16L346.74 484.01L346.61 483.86L346.48 483.71L346.35 483.56L346.24 483.41L346.13 483.26L346.03 483.11L345.93 482.97L345.85 482.83L345.78 482.69L345.72 482.56L345.66 482.43L345.62 482.31L345.59 482.19L345.57 482.08L345.57 481.97L345.57 481.87L345.59 481.78L345.63 481.7L345.67 481.5L345.72 481.29L345.77 481.09L345.83 480.89L345.9 480.69L345.97 480.49L346.05 480.3L346.13 480.1L346.22 479.9L346.31 479.71L346.41 479.52L346.51 479.32L346.62 479.13L346.74 478.95L346.85 478.76L346.97 478.58L347.1 478.4L347.23 478.22L347.37 478.04L347.51 477.87L347.65 477.7L347.8 477.53L347.95 477.37L348.1 477.21L348.26 477.06L348.42 476.9L348.59 476.75L348.75 476.61L348.93 476.47L349.1 476.33L349.28 476.2L349.46 476.08L349.64 475.96L349.83 475.84L350.02 475.73L350.21 475.62L350.4 475.52L350.6 475.42L350.8 475.34L351 475.25L351.24 475.17L351.49 475.1L351.74 475.03L351.99 474.96L352.25 474.9L352.51 474.84L352.78 474.78L353.04 474.73L353.31 474.68L353.58 474.63L353.85 474.59L354.13 474.55L354.41 474.51L354.68 474.47L354.96 474.44L355.24 474.41L355.52 474.38L355.8 474.36L356.09 474.33L356.37 474.31L356.65 474.29L356.93 474.28L357.21 474.26L357.49 474.25L357.77 474.23L358.05 474.22L358.33 474.21L358.61 474.21L358.88 474.2L359.15 474.19L359.42 474.19L359.69 474.19L359.96 474.18L360.22 474.18L360.48 474.18L360.74 474.18L361 474.18L361.25 474.18L361.49 474.18L361.74 474.18L365.97 474.14L370.19 474.09L374.42 474.05L378.64 474L382.86 473.95L387.08 473.9L391.3 473.85L395.52 473.8L399.74 473.75L403.95 473.69L408.17 473.64L412.38 473.58L416.59 473.52L420.8 473.46L425.01 473.4L429.22 473.34L433.43 473.28L437.64 473.22L441.85 473.16L450.27 473.04L454.48 472.98L458.69 472.92L462.9 472.86L467.11 472.8L471.32 472.74L475.54 472.69L479.75 472.63L483.96 472.57L488.18 472.52L492.39 472.46L496.61 472.41L500.82 472.35L505.04 472.3L509.26 472.25L513.48 472.21L517.71 472.16L521.93 472.11L526.16 472.07L530.39 472.03L530.63 472.03L530.87 472.03L531.11 472.02L531.36 472.01L531.6 472.01L531.84 472L532.08 471.99L532.33 471.97L532.57 471.96L532.81 471.95L533.06 471.93L533.3 471.91L533.55 471.9L533.79 471.88L534.04 471.86L534.29 471.84L534.54 471.82L534.79 471.8L535.04 471.78L535.29 471.76L535.54 471.74L535.79 471.72L536.05 471.7L536.3 471.68L536.56 471.66L536.82 471.64L537.08 471.63L537.34 471.61L537.6 471.59L537.87 471.58L538.13 471.56L538.4 471.55L538.67 471.54L538.94 471.52L539.21 471.52L539.48 471.51L539.76 471.5L540.03 471.5L540.31 471.49L540.59 471.49L540.59 405.97L341.87 405.97L341.86 407.41L341.86 408.85L341.86 410.28L341.85 411.7L341.84 413.12L341.83 414.53L341.83 415.93L341.81 417.33L341.8 418.72L341.79 420.11L341.78 421.49L341.76 422.86L341.75 424.23L341.74 425.59L341.72 426.95L341.71 428.31L341.7 429.66L341.69 431.01L341.67 432.35L341.66 433.69L341.65 435.03L341.65 436.37L341.64 437.7L341.63 439.03L341.63 440.36L341.63 441.68L341.63 443.01L341.63 444.33L341.63 445.66L341.64 446.98L341.65 448.3L341.66 449.62L341.67 450.94L341.69 452.26L341.71 453.59L341.74 454.91L341.76 456.23L341.79 457.56L341.83 458.88L341.87 460.21L341.89 461.52L341.9 462.78L341.88 464L341.83 465.18L341.75 466.32L341.65 467.41L341.52 468.46L341.36 469.47L341.18 470.44L340.96 471.37L340.71 472.27L340.43 473.12L340.13 473.93L339.78 474.71L339.41 475.45L339 476.15L338.56 476.82L338.09 477.45L337.58 478.05L337.03 478.61L336.45 479.14L335.83 479.63L335.17 480.09L334.48 480.52L333.75 480.91L332.97 481.27L332.16 481.61L331.31 481.91L330.41 482.18L329.48 482.42L328.5 482.63L327.48 482.81L326.42 482.97L325.31 483.1L324.15 483.2L322.96 483.27L321.71 483.32L320.42 483.34L319.08 483.34L317.7 483.31L315.64 483.27L313.58 483.22L311.52 483.17L309.46 483.12L307.4 483.06L305.34 483.01L303.27 482.95L301.21 482.88L299.14 482.82L297.07 482.75L295 482.69L292.93 482.62L290.86 482.56L288.78 482.49L286.71 482.42L284.64 482.35L282.56 482.29L280.49 482.22L278.41 482.16L276.34 482.1L274.27 482.04L272.19 481.98L270.12 481.93L268.04 481.88L265.97 481.83L263.9 481.78L261.82 481.74L259.75 481.71L257.68 481.67L255.61 481.65L253.54 481.62L251.47 481.61L249.41 481.6L247.34 481.59L245.28 481.59L243.22 481.6L241.15 481.61L239.1 481.63L237.04 481.66L234.98 481.7L232.61 481.74L230.23 481.79L227.85 481.84L225.48 481.89L223.1 481.95L220.72 482.01L218.34 482.07L215.97 482.14L213.59 482.22L211.21 482.29L208.83 482.37L206.45 482.46L204.07 482.54L201.69 482.63L199.3 482.73L196.92 482.82L194.54 482.92L192.15 483.03L189.77 483.13L187.38 483.24L185 483.35L182.61 483.47L180.22 483.59L177.83 483.71L175.44 483.83L173.04 483.96L170.65 484.09L168.25 484.22L165.85 484.35L163.46 484.49L161.06 484.63L158.65 484.77L156.25 484.92L153.85 485.07L151.44 485.21L149.03 485.37L146.62 485.52L144.21 485.68L141.8 485.83L139.38 485.99L137.56 486.1L135.81 486.17L134.13 486.21L132.52 486.21L130.97 486.18L129.49 486.11L128.07 486L126.71 485.86L125.42 485.68L124.18 485.46L123 485.19L121.89 484.89L120.82 484.55L119.82 484.16L118.86 483.73L117.96 483.25L117.12 482.73L116.32 482.17L115.57 481.55L114.87 480.89L114.22 480.18L113.62 479.42L113.06 478.62L112.54 477.76L112.07 476.85L111.64 475.88L111.24 474.87L110.89 473.8L110.58 472.67L110.3 471.49L110.06 470.26L109.85 468.96L109.68 467.61L109.54 466.2L109.43 464.73L109.35 463.2L109.29 461.61L109.27 459.95L109.27 458.23L109.3 456.45L109.38 453.88L109.45 451.3L109.51 448.72L109.56 446.14L109.61 443.56L109.64 440.99L109.67 438.41L109.7 435.83L109.71 433.26L109.72 430.68L109.72 428.11L109.72 425.53L109.71 422.96L109.69 420.38L109.66 417.81L109.63 415.24L109.59 412.67L109.54 410.1L109.49 407.53L109.44 404.96L109.37 402.39L109.3 399.83L109.23 397.26L109.15 394.7L109.06 392.13L108.97 389.57L108.87 387.01L108.77 384.45L108.66 381.89L108.55 379.34L108.43 376.78L108.3 374.23L108.18 371.68L108.04 369.13L107.91 366.58L107.76 364.03L107.62 361.49L107.47 358.95L107.31 356.41L107.15 353.87L106.91 349.4L106.66 344.93L106.4 340.46L106.14 336L105.87 331.53L105.6 327.07L105.32 322.61L105.04 318.16L104.75 313.7L104.46 309.25L104.16 304.79L103.86 300.34L103.56 295.89L103.25 291.44L102.93 287L102.62 282.55L102.3 278.1L101.97 273.66L101.64 269.22L101.31 264.78L100.98 260.34L100.64 255.9L100.3 251.46L99.96 247.02L99.62 242.58L99.27 238.15L98.92 233.71L98.57 229.27L98.22 224.84L97.86 220.41L97.51 215.97L97.15 211.54L96.79 207.11L96.43 202.68L96.07 198.24L95.71 193.81L95.35 189.38L94.99 184.95L94.63 180.52L94.26 176.09L94.21 175.68L94.15 175.28L94.06 174.88L93.96 174.47L93.85 174.07L93.71 173.66L93.57 173.26L93.41 172.85L93.23 172.44L93.05 172.03L92.85 171.61L92.63 171.2L92.41 170.78L92.18 170.36L91.93 169.93L91.68 169.5L91.41 169.07L91.14 168.64L90.86 168.2L90.57 167.76L90.27 167.32L89.97 166.87L89.66 166.41L89.35 165.96L89.03 165.49L88.71 165.02L88.38 164.55L88.06 164.07L87.72 163.59L87.39 163.1L87.05 162.6L86.72 162.1L86.38 161.59L86.04 161.07L85.71 160.55L85.37 160.02L85.04 159.48L84.71 158.94L84.38 158.39L84.06 157.83L84.42 157.74L84.79 157.66L85.17 157.57L85.55 157.48L85.94 157.38L86.33 157.28L86.73 157.18L87.13 157.08L87.54 156.98L87.95 156.88L88.37 156.77L88.79 156.67L89.21 156.57L89.63 156.46L90.06 156.36L90.49 156.26L90.93 156.16L91.37 156.07L91.81 155.97L92.25 155.88L92.69 155.79L93.14 155.7L93.59 155.62L94.04 155.54L94.49 155.47L94.94 155.4L95.39 155.34L95.84 155.28L96.29 155.23L96.75 155.18L97.2 155.14L97.65 155.11L98.11 155.09L98.56 155.07L99.01 155.06L99.46 155.06L99.91 155.06L100.36 155.08ZM313.88 403.58L313.34 403.59L312.8 403.6L312.27 403.61L311.73 403.63L311.2 403.64L310.67 403.66L310.14 403.69L309.61 403.71L309.08 403.74L308.55 403.78L308.03 403.82L304.57 404.02L301.1 404.23L297.64 404.44L294.19 404.65L290.73 404.87L287.28 405.09L283.82 405.31L280.37 405.54L276.92 405.76L273.47 405.99L270.02 406.22L266.57 406.45L263.13 406.68L259.68 406.92L256.23 407.15L252.79 407.38L249.34 407.62L245.9 407.85L242.46 408.08L239.01 408.32L235.57 408.55L232.12 408.78L228.68 409.01L225.23 409.23L221.79 409.46L218.34 409.68L214.9 409.9L211.45 410.12L208 410.33L204.55 410.54L201.1 410.75L197.65 410.95L194.2 411.15L190.75 411.34L187.29 411.54L183.84 411.72L180.38 411.9L176.92 412.08L173.46 412.25L169.99 412.41L167.01 412.57L164.17 412.72L161.48 412.87L158.93 413.02L156.51 413.18L154.23 413.34L152.08 413.53L150.04 413.73L148.13 413.95L146.34 414.2L144.65 414.48L143.07 414.79L141.6 415.15L140.22 415.55L138.94 415.99L137.75 416.48L136.65 417.03L135.62 417.64L134.68 418.32L133.81 419.06L133.01 419.87L132.27 420.76L131.59 421.72L130.97 422.78L130.41 423.91L129.89 425.14L129.42 426.47L128.99 427.9L128.59 429.43L128.23 431.07L127.89 432.82L127.58 434.69L127.28 436.67L127 438.79L126.74 441.03L126.47 443.4L126.22 445.91L125.96 448.56L125.69 451.36L125.41 454.31L125.3 455.64L125.2 456.92L125.11 458.13L125.04 459.28L124.99 460.38L124.95 461.42L124.94 462.4L124.95 463.32L124.98 464.2L125.03 465.02L125.11 465.8L125.21 466.52L125.34 467.2L125.51 467.83L125.7 468.42L125.92 468.97L126.18 469.47L126.47 469.94L126.8 470.36L127.16 470.75L127.56 471.11L128 471.43L128.49 471.72L129.01 471.98L129.58 472.21L130.19 472.41L130.85 472.58L131.56 472.73L132.31 472.86L133.12 472.96L133.98 473.04L134.88 473.11L135.85 473.15L136.87 473.18L137.94 473.2L139.08 473.2L140.27 473.19L141.52 473.17L142.84 473.14L144.21 473.1L146.63 472.98L149.05 472.87L151.46 472.75L153.88 472.64L156.3 472.52L158.71 472.41L161.13 472.31L163.55 472.2L165.97 472.1L168.38 472L170.8 471.9L173.22 471.8L175.63 471.7L178.05 471.61L180.47 471.52L182.88 471.43L185.3 471.34L187.72 471.25L190.14 471.17L192.55 471.09L194.97 471.01L197.39 470.93L199.8 470.86L202.22 470.78L204.64 470.71L207.05 470.64L209.47 470.57L211.89 470.51L214.3 470.45L216.72 470.38L219.14 470.33L221.56 470.27L223.97 470.21L226.39 470.16L228.81 470.11L231.22 470.06L233.64 470.01L236.06 469.97L238.47 469.92L240.89 469.88L243.07 469.84L245.24 469.81L247.42 469.78L249.59 469.75L251.77 469.73L253.95 469.71L256.12 469.69L258.3 469.67L260.48 469.66L262.66 469.65L264.84 469.65L267.02 469.64L269.21 469.64L271.39 469.64L273.58 469.64L275.76 469.65L277.95 469.65L280.14 469.66L282.34 469.67L284.53 469.68L286.73 469.69L288.93 469.7L291.13 469.71L293.33 469.73L295.53 469.74L297.74 469.75L299.95 469.77L302.17 469.78L304.38 469.79L306.6 469.81L308.82 469.82L311.05 469.83L313.28 469.84L315.51 469.85L317.74 469.86L319.98 469.87L322.23 469.87L324.47 469.88L326.72 469.88L328.98 469.88L328.98 403.82L328.49 403.82L328 403.81L327.51 403.81L327.01 403.8L326.51 403.8L326.01 403.79L325.5 403.78L324.99 403.77L324.48 403.75L323.97 403.74L323.45 403.73L322.93 403.72L322.41 403.7L321.88 403.69L321.36 403.68L320.83 403.66L320.3 403.65L319.77 403.64L319.24 403.63L318.7 403.62L318.17 403.61L317.63 403.6L317.1 403.59L316.56 403.59L316.03 403.58L315.49 403.58L314.95 403.58L314.41 403.58L313.88 403.58ZM119.67 335.76L119.83 337.52L119.99 339.27L120.15 341L120.31 342.73L120.47 344.45L120.63 346.16L120.79 347.86L120.95 349.54L121.11 351.22L121.27 352.89L121.43 354.55L121.58 356.2L121.74 357.84L121.9 359.48L122.05 361.1L122.2 362.71L122.36 364.32L122.51 365.91L122.66 367.5L122.81 369.07L122.96 370.64L123.11 372.2L123.26 373.75L123.4 375.29L123.55 376.82L123.69 378.34L123.83 379.86L123.97 381.37L124.11 382.86L124.25 384.35L124.39 385.83L124.52 387.3L124.66 388.77L124.79 390.22L124.92 391.67L125.04 393.11L125.17 394.54L125.29 395.96L125.41 397.37L210.81 397.37L210.81 333.99L119.51 333.99L119.67 335.76ZM397.59 328.39L396.19 328.4L394.79 328.41L393.38 328.42L391.98 328.43L390.58 328.45L389.18 328.47L387.77 328.49L386.37 328.52L384.96 328.55L383.56 328.59L382.15 328.62L379.33 328.75L376.51 328.87L373.69 329L370.87 329.14L368.05 329.27L365.23 329.41L362.41 329.55L359.59 329.7L356.77 329.84L353.95 329.99L351.13 330.14L348.31 330.29L345.49 330.44L342.67 330.6L339.85 330.75L334.21 331.05L331.39 331.21L328.57 331.36L325.75 331.51L322.93 331.66L320.11 331.81L317.29 331.96L314.47 332.1L311.65 332.25L308.83 332.39L306.01 332.53L303.19 332.67L300.37 332.8L297.56 332.93L294.74 333.06L291.92 333.18L289.1 333.3L286.28 333.41L283.46 333.52L280.64 333.63L277.82 333.73L275 333.82L272.18 333.91L269.36 333.99L265.68 334.1L262.21 334.16L258.95 334.2L255.89 334.21L253.01 334.22L250.33 334.21L247.83 334.2L245.5 334.2L243.34 334.21L241.34 334.25L239.49 334.31L237.8 334.4L236.25 334.54L234.83 334.72L233.55 334.96L232.39 335.26L231.35 335.63L230.42 336.07L229.6 336.6L228.87 337.22L228.24 337.93L227.7 338.75L227.24 339.68L226.86 340.72L226.54 341.89L226.29 343.2L226.09 344.64L225.94 346.22L225.84 347.96L225.78 349.86L225.74 351.92L225.74 354.16L225.75 356.57L225.77 359.17L225.81 361.97L225.84 364.97L225.87 368.18L225.88 371.6L225.88 375.24L225.85 379.11L225.85 382.33L225.9 383.09L225.95 383.82L226.02 384.52L226.1 385.2L226.19 385.86L226.3 386.5L226.41 387.11L226.54 387.7L226.69 388.26L226.85 388.8L227.03 389.32L227.22 389.82L227.43 390.3L227.66 390.75L227.9 391.18L228.16 391.59L228.45 391.98L228.75 392.34L229.07 392.69L229.41 393.01L229.77 393.31L230.16 393.59L230.57 393.85L231 394.09L231.45 394.31L231.93 394.51L232.43 394.68L232.95 394.84L233.51 394.98L234.09 395.1L234.69 395.2L235.32 395.28L235.98 395.34L236.67 395.38L237.39 395.4L238.14 395.4L238.91 395.38L239.72 395.35L240.56 395.3L241.43 395.22L243.68 395.02L245.94 394.83L248.2 394.64L250.45 394.45L252.71 394.27L254.96 394.09L257.22 393.91L259.47 393.74L261.73 393.57L263.99 393.41L266.24 393.25L268.5 393.1L270.75 392.95L273.01 392.8L275.27 392.66L277.52 392.52L279.78 392.38L282.03 392.25L284.29 392.12L286.54 392L288.8 391.88L291.06 391.77L293.31 391.66L295.57 391.55L297.82 391.45L300.08 391.35L302.34 391.25L304.59 391.16L306.85 391.08L309.1 390.99L311.36 390.92L313.61 390.84L315.87 390.77L318.13 390.7L320.38 390.64L322.64 390.58L324.89 390.53L327.15 390.48L329.41 390.43L331.66 390.39L334.4 390.35L337.14 390.32L339.87 390.29L342.6 390.26L345.34 390.24L348.07 390.22L350.8 390.2L353.53 390.18L356.26 390.17L358.99 390.16L361.72 390.16L364.44 390.15L367.17 390.15L369.9 390.15L372.64 390.15L375.37 390.16L378.1 390.16L380.84 390.17L383.57 390.18L386.31 390.19L389.05 390.2L391.79 390.21L394.54 390.22L397.29 390.24L400.04 390.25L402.79 390.26L405.55 390.28L408.31 390.29L411.07 390.3L413.84 390.31L416.61 390.33L419.38 390.34L422.16 390.35L424.95 390.36L427.74 390.37L430.53 390.38L433.33 390.38L436.14 390.39L438.95 390.39L441.77 390.39L441.73 388.94L441.69 387.49L441.65 386.03L441.6 384.57L441.56 383.11L441.52 381.65L441.48 380.18L441.44 378.71L441.4 377.23L441.36 375.75L441.31 374.27L441.27 372.79L441.22 371.29L441.18 369.8L441.13 368.3L441.09 366.79L441.04 365.28L440.99 363.77L440.94 362.24L440.89 360.72L440.84 359.18L440.79 357.64L440.74 356.1L440.68 354.54L440.63 352.98L440.57 351.42L440.51 349.84L440.45 348.26L440.39 346.67L440.33 345.07L440.27 343.47L440.2 341.85L440.14 340.23L440.07 338.6L440 336.96L439.92 335.31L439.85 333.65L439.78 331.99L439.7 330.31L439.62 328.62L438.09 328.62L436.57 328.62L435.06 328.62L433.56 328.61L432.06 328.6L430.57 328.59L429.09 328.58L427.61 328.57L426.14 328.56L424.67 328.55L423.21 328.54L421.76 328.52L420.31 328.51L418.86 328.5L417.42 328.48L415.99 328.47L414.55 328.46L413.13 328.44L411.7 328.43L410.28 328.42L408.86 328.41L407.44 328.4L406.03 328.4L404.62 328.39L403.21 328.39L401.8 328.39L400.4 328.39L398.99 328.39L397.59 328.39ZM312.53 248.92L307.27 249.08L302.02 249.24L296.78 249.4L291.54 249.56L286.31 249.73L281.09 249.89L275.87 250.05L270.66 250.22L265.45 250.38L260.25 250.54L255.05 250.71L249.86 250.87L244.68 251.04L239.49 251.21L234.32 251.38L229.14 251.55L223.97 251.71L218.8 251.89L213.64 252.06L208.48 252.23L203.32 252.4L198.16 252.58L193 252.76L187.85 252.93L182.7 253.11L177.55 253.29L172.4 253.47L167.25 253.66L162.1 253.84L156.95 254.03L151.8 254.21L146.66 254.4L141.51 254.6L136.36 254.79L131.21 254.98L126.06 255.18L120.9 255.38L115.75 255.58L115.91 257.22L116.07 258.85L116.22 260.47L116.38 262.08L116.53 263.67L116.68 265.26L116.83 266.83L116.98 268.39L117.13 269.94L117.27 271.49L117.42 273.03L117.56 274.56L117.71 276.08L117.85 277.59L117.99 279.11L118.14 280.61L118.28 282.11L118.42 283.61L118.56 285.1L118.7 286.6L118.84 288.09L118.98 289.57L119.12 291.06L119.27 292.55L119.41 294.04L119.55 295.52L119.69 297.01L119.84 298.51L119.98 300L120.13 301.5L120.27 303L120.42 304.51L120.57 306.02L120.72 307.54L120.87 309.07L121.03 310.6L121.18 312.14L121.34 313.68L121.49 315.24L121.65 316.81L323.07 316.81L323.07 248.6L317.79 248.76L312.53 248.92ZM347.73 248.11L347.42 248.17L347.11 248.26L346.79 248.37L346.47 248.5L346.14 248.65L345.8 248.82L345.46 249.01L345.12 249.22L344.78 249.44L344.43 249.68L344.09 249.94L343.74 250.21L343.4 250.49L343.06 250.79L342.72 251.1L342.39 251.42L342.06 251.75L341.73 252.09L341.41 252.43L341.1 252.79L340.8 253.15L340.5 253.51L340.21 253.88L339.94 254.25L339.67 254.63L339.42 255.01L339.17 255.38L338.95 255.76L338.73 256.14L338.53 256.51L338.35 256.89L338.18 257.26L338.03 257.62L337.9 257.98L337.79 258.33L337.69 258.67L337.62 259.01L337.57 259.34L337.49 260.39L337.43 261.44L337.37 262.49L337.32 263.54L337.28 264.6L337.25 265.66L337.23 266.72L337.22 267.78L337.21 268.84L337.21 269.9L337.21 270.97L337.23 272.04L337.24 273.11L337.27 274.18L337.3 275.25L337.33 276.32L337.37 277.39L337.41 278.47L337.45 279.54L337.5 280.62L337.55 281.7L337.61 282.78L337.66 283.86L337.72 284.94L337.78 286.02L337.85 287.1L337.91 288.19L337.97 289.27L338.03 290.35L338.1 291.44L338.16 292.52L338.22 293.61L338.28 294.7L338.34 295.78L338.4 296.87L338.45 297.96L338.51 299.04L338.56 300.13L338.6 301.22L338.64 302.31L338.69 303.02L338.75 303.71L338.83 304.37L338.92 305.02L339.03 305.63L339.15 306.23L339.29 306.8L339.44 307.35L339.61 307.88L339.79 308.39L340 308.88L340.21 309.34L340.45 309.78L340.7 310.2L340.98 310.6L341.26 310.99L341.57 311.35L341.9 311.69L342.24 312.01L342.6 312.31L342.99 312.59L343.39 312.86L343.81 313.1L344.25 313.33L344.71 313.54L345.19 313.73L345.7 313.9L346.22 314.05L346.76 314.19L347.33 314.32L347.92 314.42L348.53 314.51L349.16 314.58L349.81 314.64L350.49 314.68L351.19 314.7L351.91 314.72L352.66 314.71L353.43 314.69L354.22 314.66L357.52 314.5L360.82 314.34L364.12 314.18L367.42 314.03L370.71 313.88L374.01 313.73L377.3 313.58L380.59 313.43L383.88 313.29L387.17 313.15L390.45 313.01L393.74 312.87L397.03 312.73L400.31 312.6L403.6 312.47L406.88 312.34L410.16 312.21L413.45 312.09L416.73 311.96L420.01 311.84L423.3 311.72L426.58 311.6L429.86 311.49L433.15 311.37L436.43 311.26L439.72 311.15L443 311.04L446.29 310.94L449.57 310.83L452.86 310.73L456.15 310.63L459.44 310.53L462.73 310.44L466.02 310.34L469.32 310.25L472.61 310.16L475.91 310.08L479.21 309.99L482.51 309.91L485.81 309.83L555.63 309.83L555.59 308.99L555.55 308.17L555.52 307.36L555.48 306.57L555.45 305.79L555.42 305.03L555.39 304.28L555.36 303.54L555.33 302.82L555.3 302.11L555.28 301.42L555.25 300.73L555.22 300.06L555.2 299.4L555.17 298.75L555.14 298.11L555.11 297.48L555.09 296.87L555.06 296.26L555.03 295.66L555 295.07L554.96 294.49L554.93 293.92L554.9 293.35L554.86 292.79L554.82 292.24L554.78 291.7L554.74 291.17L554.7 290.64L554.65 290.11L554.6 289.59L554.55 289.08L554.49 288.57L554.44 288.07L554.38 287.57L554.31 287.07L554.24 286.58L554.17 286.09L554.1 285.6L554.02 285.12L553.67 282.68L553.33 280.37L553 278.17L552.68 276.08L552.36 274.1L552.04 272.23L551.72 270.47L551.39 268.81L551.04 267.24L550.69 265.77L550.31 264.4L549.92 263.11L549.49 261.91L549.04 260.79L548.55 259.75L548.03 258.79L547.47 257.9L546.86 257.08L546.2 256.33L545.49 255.65L544.73 255.02L543.91 254.45L543.02 253.94L542.07 253.49L541.05 253.08L539.95 252.71L538.78 252.39L537.53 252.11L536.19 251.87L534.76 251.66L533.24 251.48L531.63 251.33L529.91 251.2L528.09 251.1L526.17 251.01L524.13 250.94L521.98 250.88L519.72 250.83L517.33 250.79L514.81 250.74L513.12 250.71L511.43 250.69L509.74 250.68L508.04 250.67L506.35 250.68L504.66 250.7L502.97 250.72L501.27 250.76L499.58 250.8L497.88 250.84L496.19 250.9L494.5 250.96L492.8 251.02L491.1 251.09L489.41 251.16L487.71 251.23L486.01 251.31L484.31 251.39L482.61 251.47L480.91 251.55L479.21 251.63L477.5 251.71L475.8 251.79L474.09 251.87L472.38 251.94L470.68 252.01L468.97 252.08L467.26 252.14L465.54 252.2L463.83 252.25L462.11 252.3L460.4 252.34L458.68 252.38L456.96 252.4L455.24 252.42L453.51 252.43L451.79 252.42L450.06 252.41L448.33 252.39L446.6 252.36L444.14 252.31L441.69 252.26L439.23 252.2L436.77 252.13L434.31 252.06L431.86 251.98L429.4 251.9L426.94 251.81L424.49 251.71L422.03 251.61L419.57 251.5L417.11 251.39L414.66 251.28L412.2 251.16L409.74 251.04L407.28 250.92L404.83 250.8L402.37 250.67L399.91 250.54L397.46 250.41L395 250.28L392.54 250.15L390.08 250.01L387.63 249.88L385.17 249.75L382.71 249.62L380.26 249.49L377.8 249.36L375.34 249.23L372.88 249.11L370.43 248.99L367.97 248.87L365.51 248.75L363.05 248.64L360.6 248.53L358.14 248.43L355.68 248.33L353.23 248.23L350.77 248.14L348.31 248.06L348.02 248.07L347.73 248.11ZM136.98 171.59L135.03 171.59L133.09 171.6L131.14 171.62L129.2 171.64L127.26 171.66L125.32 171.69L123.38 171.72L121.44 171.75L119.51 171.79L119.22 171.8L118.92 171.83L118.61 171.89L118.29 171.96L117.97 172.05L117.63 172.16L117.29 172.29L116.95 172.44L116.6 172.6L116.24 172.77L115.89 172.96L115.53 173.17L115.17 173.39L114.81 173.62L114.46 173.86L114.1 174.11L113.75 174.37L113.4 174.65L113.06 174.93L112.73 175.21L112.4 175.51L112.08 175.81L111.76 176.12L111.46 176.43L111.17 176.75L110.89 177.07L110.63 177.39L110.37 177.71L110.14 178.04L109.91 178.36L109.71 178.69L109.52 179.01L109.35 179.33L109.2 179.65L109.07 179.96L108.96 180.27L108.88 180.58L108.82 180.88L108.78 181.17L108.76 181.46L108.69 182.59L108.62 183.72L108.55 184.85L108.49 185.99L108.44 187.12L108.39 188.26L108.34 189.4L108.3 190.54L108.27 191.68L108.24 192.82L108.22 193.96L108.2 195.11L108.19 196.25L108.18 197.4L108.18 198.55L108.18 199.69L108.19 200.84L108.2 201.99L108.21 203.14L108.23 204.29L108.25 205.43L108.28 206.58L108.31 207.73L108.34 208.88L108.38 210.02L108.42 211.17L108.46 212.32L108.51 213.46L108.56 214.61L108.61 215.75L108.67 216.89L108.73 218.03L108.79 219.17L108.86 220.31L108.93 221.45L109 222.59L109.07 223.72L109.14 224.85L109.22 225.98L109.3 227.11L109.35 227.44L109.42 227.77L109.51 228.11L109.62 228.46L109.74 228.81L109.88 229.16L110.03 229.52L110.2 229.88L110.39 230.24L110.59 230.6L110.8 230.97L111.02 231.33L111.25 231.69L111.49 232.04L111.75 232.4L112.01 232.75L112.28 233.09L112.56 233.43L112.84 233.77L113.13 234.09L113.42 234.41L113.72 234.72L114.02 235.02L114.33 235.31L114.64 235.59L114.94 235.85L115.25 236.11L115.56 236.35L115.87 236.57L116.17 236.78L116.48 236.97L116.78 237.15L117.07 237.31L117.37 237.45L117.65 237.57L117.93 237.67L118.2 237.75L118.47 237.81L118.72 237.84L118.97 237.85L121.22 237.93L123.48 238.01L125.73 238.08L127.98 238.14L130.23 238.21L132.48 238.27L134.73 238.32L136.98 238.38L139.23 238.43L141.49 238.47L143.74 238.52L146 238.56L148.25 238.6L150.51 238.63L152.78 238.67L155.05 238.7L157.32 238.72L159.59 238.75L161.87 238.77L164.15 238.79L166.44 238.81L168.74 238.83L171.04 238.85L173.34 238.86L175.65 238.87L177.97 238.88L180.3 238.89L182.63 238.9L184.97 238.91L187.32 238.91L189.68 238.92L192.05 238.92L194.43 238.92L196.81 238.92L199.21 238.93L201.61 238.93L204.03 238.93L206.46 238.93L208.9 238.93L211.35 238.93L211.23 237.28L211.11 235.66L211 234.04L210.88 232.45L210.77 230.86L210.66 229.29L210.55 227.74L210.44 226.2L210.33 224.67L210.22 223.15L210.11 221.65L210 220.15L209.89 218.67L209.79 217.2L209.68 215.74L209.57 214.29L209.46 212.85L209.35 211.42L209.25 210L209.14 208.58L209.02 207.18L208.91 205.78L208.8 204.39L208.68 203L208.57 201.62L208.45 200.25L208.33 198.89L208.2 197.53L208.08 196.17L207.95 194.82L207.82 193.47L207.69 192.13L207.55 190.79L207.42 189.45L207.28 188.11L207.13 186.78L206.98 185.45L206.83 184.12L206.68 182.79L206.52 181.46L206.47 181.21L206.4 180.96L206.32 180.7L206.22 180.43L206.1 180.16L205.97 179.89L205.83 179.61L205.67 179.33L205.5 179.04L205.32 178.76L205.12 178.47L204.92 178.18L204.7 177.89L204.48 177.61L204.24 177.32L204 177.04L203.75 176.76L203.49 176.49L203.23 176.22L202.96 175.95L202.68 175.69L202.41 175.44L202.12 175.2L201.84 174.96L201.55 174.73L201.26 174.52L200.97 174.31L200.68 174.11L200.39 173.93L200.1 173.75L199.81 173.59L199.52 173.45L199.24 173.32L198.96 173.2L198.68 173.1L198.41 173.02L198.14 172.95L197.88 172.9L197.63 172.87L197.39 172.86L195.45 172.79L193.51 172.71L191.58 172.63L189.64 172.56L187.7 172.49L185.75 172.42L183.81 172.35L181.86 172.29L179.91 172.23L177.97 172.17L176.02 172.11L174.07 172.06L172.12 172.01L170.16 171.96L168.21 171.91L166.26 171.87L164.31 171.83L162.35 171.79L160.4 171.76L158.45 171.72L156.49 171.69L154.54 171.67L152.59 171.65L150.63 171.63L148.68 171.61L146.73 171.6L144.78 171.59L142.83 171.58L140.88 171.58L138.93 171.58L136.98 171.59ZM221.64 177.91L221.71 179.21L221.79 180.5L221.86 181.8L221.94 183.09L222.01 184.39L222.08 185.69L222.15 187L222.22 188.3L222.29 189.61L222.35 190.91L222.42 192.22L222.49 193.53L222.56 194.85L222.62 196.16L222.69 197.47L222.76 198.79L222.83 200.1L222.9 201.42L222.97 202.74L223.04 204.06L223.11 205.38L223.18 206.7L223.26 208.03L223.33 209.35L223.41 210.67L223.49 212L223.57 213.32L223.66 214.65L223.75 215.98L223.84 217.3L223.93 218.63L224.02 219.96L224.12 221.29L224.22 222.61L224.33 223.94L224.43 225.27L224.54 226.6L224.66 227.93L224.78 229.26L224.83 229.46L224.91 229.67L225 229.88L225.12 230.09L225.26 230.31L225.42 230.52L225.6 230.74L225.8 230.96L226.01 231.18L226.24 231.4L226.48 231.62L226.74 231.84L227.01 232.05L227.3 232.27L227.59 232.48L227.9 232.69L228.21 232.9L228.54 233.1L228.87 233.3L229.21 233.49L229.55 233.68L229.9 233.86L230.26 234.04L230.62 234.21L230.98 234.37L231.34 234.53L231.7 234.68L232.06 234.82L232.43 234.95L232.78 235.08L233.14 235.19L233.49 235.29L233.84 235.39L234.18 235.47L234.52 235.54L234.84 235.6L235.16 235.64L235.47 235.68L235.77 235.7L236.06 235.71L240.12 235.7L244.19 235.7L248.25 235.7L252.32 235.69L256.38 235.68L260.44 235.67L264.49 235.66L268.55 235.65L272.6 235.64L276.66 235.62L280.71 235.61L284.76 235.59L288.81 235.57L292.87 235.55L296.92 235.54L300.96 235.52L305.01 235.5L309.06 235.48L313.11 235.46L321.21 235.42L325.26 235.4L329.3 235.38L333.35 235.36L337.4 235.34L341.45 235.32L345.5 235.3L349.55 235.28L353.61 235.27L357.66 235.25L361.71 235.24L365.77 235.22L369.83 235.21L373.88 235.2L377.94 235.19L382 235.18L386.06 235.18L390.13 235.17L394.19 235.17L398.26 235.17L440.69 235.17L440.69 176.62L221.56 176.62L221.64 177.91Z" id="c6D5J3xHv"></path></defs><g><g><g><use xlink:href="#a6HHnxAvdD" opacity="1" fill="#68c785" fill-opacity="1"></use></g><g><use xlink:href="#c6D5J3xHv" opacity="1" fill="#ffffff" fill-opacity="1"></use><g><use xlink:href="#c6D5J3xHv" opacity="1" fill-opacity="0" stroke="#000000" stroke-width="1" stroke-opacity="0"></use></g></g></g></g></svg>