<?xml version="1.0" encoding="UTF-8" standalone="no"?>
<!DOCTYPE svg PUBLIC "-//W3C//DTD SVG 1.1//EN" "http://www.w3.org/Graphics/SVG/1.1/DTD/svg11.dtd">
<svg version="1.1" xmlns="http://www.w3.org/2000/svg" xmlns:xlink="http://www.w3.org/1999/xlink" preserveAspectRatio="xMidYMid meet" viewBox="0 0 640 640" width="140" height="140"><defs><path d="M640 320C640 496.61 496.61 640 320 640C143.39 640 0 496.61 0 320C0 143.39 143.39 0 320 0C496.61 0 640 143.39 640 320Z" id="bXaX4odNx"></path><linearGradient id="gradientbc0Kbdh6" gradientUnits="userSpaceOnUse" x1="148.99" y1="56.52" x2="495.36" y2="590.72"><stop style="stop-color: #ffe56b;stop-opacity: 1" offset="0%"></stop><stop style="stop-color: #ffe56b;stop-opacity: 1" offset="4.680852444442531%"></stop><stop style="stop-color: #e56c6c;stop-opacity: 1" offset="100%"></stop></linearGradient><path d="M338.61 149.48L338.87 149.5L339.14 149.53L339.4 149.57L339.67 149.61L339.93 149.66L340.19 149.72L340.45 149.79L340.71 149.86L340.96 149.93L341.21 150.02L341.46 150.11L341.71 150.21L341.96 150.31L342.2 150.42L342.43 150.53L342.66 150.65L342.89 150.78L343.11 150.91L343.33 151.05L343.54 151.19L343.75 151.34L343.95 151.49L344.15 151.65L344.15 151.62L344.15 151.59L344.16 151.56L344.16 151.53L344.17 151.51L344.17 151.48L344.18 151.46L344.19 151.44L344.2 151.42L344.22 151.4L344.23 151.38L344.24 151.36L344.25 151.34L344.27 151.32L344.28 151.3L344.3 151.29L344.31 151.27L344.33 151.25L344.35 151.24L344.38 151.21L344.39 151.19L344.41 151.17L344.42 151.16L344.44 151.14L344.45 151.12L344.47 151.11L344.48 151.09L344.5 151.07L344.51 151.05L344.52 151.03L344.53 151.01L344.54 150.99L344.55 150.96L344.56 150.94L344.56 150.91L344.57 150.88L344.57 150.86L344.57 150.83L344.58 150.76L344.58 150.73L344.58 150.71L344.59 150.68L344.59 150.66L344.6 150.63L344.61 150.61L344.62 150.59L344.63 150.57L344.64 150.56L344.65 150.54L344.67 150.53L344.68 150.51L344.7 150.5L344.71 150.5L344.73 150.49L344.74 150.48L344.76 150.48L344.77 150.48L344.79 150.48L344.8 150.48L344.82 150.48L344.84 150.48L344.85 150.49L344.87 150.5L344.88 150.5L344.9 150.51L344.91 150.53L344.92 150.54L344.94 150.56L344.95 150.57L344.96 150.59L344.97 150.61L344.98 150.63L344.98 150.66L344.99 150.68L344.99 150.71L345 150.73L345 150.76L345 150.8L345 150.83L345 150.86L345 150.89L345 150.92L345 150.96L345 150.99L344.99 151.02L344.99 151.06L344.99 151.09L344.98 151.12L344.98 151.16L344.97 151.19L344.96 151.23L344.95 151.26L344.93 151.3L344.92 151.34L344.9 151.37L344.89 151.41L344.86 151.45L344.84 151.49L344.82 151.53L344.79 151.57L344.76 151.61L344.73 151.66L344.69 151.7L344.65 151.74L344.61 151.79L344.56 151.84L344.51 151.89L344.46 151.94L344.41 151.99L344.35 152.04L344.28 152.09L344.22 152.15L344.14 152.2L344.07 152.26L343.99 152.32L343.9 152.38L343.82 152.44L343.72 152.5L343.91 152.7L344.09 152.89L344.27 153.09L344.44 153.3L344.6 153.5L344.75 153.71L344.9 153.92L345.04 154.13L345.17 154.35L345.3 154.57L345.41 154.79L345.52 155.01L345.62 155.24L345.71 155.47L345.79 155.7L345.87 155.93L345.93 156.16L345.99 156.4L346.03 156.64L346.07 156.88L346.1 157.12L346.11 157.36L346.12 157.6L346.12 157.85L346.11 158.09L346.08 158.34L346.05 158.59L346 158.84L345.95 159.09L345.88 159.34L345.8 159.59L345.72 159.85L345.61 160.1L345.5 160.36L345.38 160.61L345.24 160.87L345.09 161.12L344.93 161.38L344.76 161.63L344.58 161.89L344.51 161.99L344.45 162.08L344.38 162.18L344.32 162.27L344.26 162.37L344.13 162.56L344.06 162.66L343.62 163.33L343.55 163.43L343.36 163.71L343.23 163.91L343.17 164L343.1 164.1L343.04 164.19L342.98 164.29L342.91 164.39L342.85 164.48L342.59 164.87L342.53 164.96L342.46 165.06L342.27 165.35L342.08 165.63L342.02 165.73L341.75 168.51L341.51 171.29L341.31 174.06L341.14 176.83L341 179.59L340.9 182.36L340.82 185.11L340.76 187.87L340.73 190.62L340.73 193.37L340.75 196.12L340.78 198.86L340.84 201.6L340.91 204.34L341 207.08L341.11 209.82L341.22 212.56L341.35 215.3L341.49 218.03L341.64 220.77L341.8 223.51L341.96 226.24L342.12 228.98L342.29 231.72L342.46 234.45L342.63 237.19L342.8 239.93L342.96 242.68L343.12 245.42L343.28 248.17L343.42 250.92L343.56 253.67L343.68 256.42L343.8 259.18L343.9 261.94L343.99 264.71L344.05 267.48L344.11 270.25L344.14 273.03L344.15 275.81L344.15 277.63L344.14 279.45L344.13 281.27L344.12 283.09L344.11 284.91L344.09 286.73L344.07 288.54L344.05 290.36L344.02 292.17L344 293.98L343.96 295.79L343.93 297.6L343.89 299.42L343.85 301.22L343.81 303.03L343.77 304.84L343.72 306.65L343.67 308.46L343.62 310.27L343.56 312.08L343.5 313.88L343.45 315.69L343.38 317.5L343.32 319.31L343.25 321.12L343.18 322.93L343.11 324.74L343.04 326.55L342.97 328.36L342.89 330.17L342.81 331.98L342.73 333.79L342.65 335.61L342.56 337.42L342.47 339.24L342.39 341.06L342.3 342.88L342.2 344.7L342.11 346.52L342.02 348.34L341.95 349.75L341.89 351.17L341.84 352.59L341.78 354.02L341.73 355.46L341.67 356.89L341.62 358.34L341.56 359.78L341.51 361.23L341.46 362.69L341.4 364.15L341.34 365.61L341.28 367.07L341.21 368.54L341.15 370L341.07 371.47L341 372.94L340.91 374.41L340.83 375.88L340.74 377.36L340.64 378.83L340.53 380.3L340.42 381.77L340.29 383.24L340.17 384.71L340.03 386.18L339.88 387.64L339.72 389.1L339.55 390.56L339.38 392.02L339.19 393.48L338.98 394.93L338.77 396.37L338.54 397.82L338.31 399.26L338.05 400.69L337.79 402.12L337.5 403.54L337.21 404.96L336.9 406.37L336.93 407.3L336.96 408.23L336.98 409.16L337.01 410.09L337.03 411.03L337.06 411.96L337.08 412.9L337.09 413.84L337.11 414.78L337.12 415.72L337.13 416.66L337.14 417.6L337.15 418.54L337.15 419.48L337.15 420.42L337.15 421.37L337.14 422.31L337.13 423.25L337.12 424.2L337.11 425.14L337.09 426.09L337.07 427.03L337.05 427.97L337.02 428.92L336.99 429.86L336.95 430.8L336.91 431.75L336.87 432.69L336.83 433.63L336.78 434.57L336.72 435.51L336.66 436.45L336.6 437.39L336.53 438.32L336.46 439.26L336.39 440.19L336.31 441.12L336.22 442.06L336.14 442.99L336.04 443.92L336.04 444.17L336.03 444.42L336.01 444.67L335.98 444.91L335.94 445.15L335.9 445.39L335.85 445.62L335.8 445.85L335.73 446.08L335.66 446.3L335.58 446.52L335.5 446.73L335.41 446.94L335.31 447.15L335.21 447.35L335.1 447.55L334.98 447.74L334.86 447.93L334.73 448.11L334.6 448.29L334.46 448.46L334.32 448.63L334.17 448.8L334.01 448.95L333.85 449.11L333.69 449.26L333.52 449.4L333.34 449.54L333.17 449.67L332.98 449.8L332.79 449.92L332.6 450.03L332.4 450.14L332.2 450.25L332 450.34L331.79 450.44L331.58 450.52L331.36 450.6L331.14 450.68L330.92 450.74L331.04 450.97L331.16 451.2L331.26 451.44L331.34 451.68L331.42 451.93L331.49 452.18L331.54 452.43L331.58 452.69L331.62 452.94L331.64 453.2L331.64 453.46L331.64 453.72L331.62 453.98L331.6 454.23L331.56 454.48L331.51 454.74L331.45 454.98L331.37 455.23L331.29 455.47L331.19 455.7L331.08 455.93L330.96 456.15L330.82 456.37L330.68 456.58L330.52 456.78L330.35 456.97L330.16 457.15L329.97 457.33L329.76 457.49L329.54 457.64L329.31 457.78L329.06 457.91L328.81 458.03L328.54 458.13L328.26 458.21L327.96 458.29L327.65 458.35L327.33 458.39L327 458.41L326.66 458.42L325.22 458.34L323.8 458.24L322.39 458.11L320.99 457.95L319.61 457.77L318.24 457.56L316.88 457.33L315.52 457.08L314.18 456.8L312.86 456.5L311.54 456.17L310.23 455.82L308.93 455.45L307.64 455.06L306.36 454.65L305.09 454.22L303.83 453.76L302.58 453.29L301.33 452.8L300.1 452.29L298.87 451.76L297.65 451.21L296.43 450.65L295.23 450.07L294.03 449.47L292.84 448.85L291.65 448.22L290.47 447.58L289.3 446.92L288.14 446.24L286.97 445.55L285.82 444.85L284.67 444.14L283.52 443.41L282.38 442.67L281.24 441.91L280.11 441.15L278.98 440.38L277.86 439.59L276.74 438.8L276.03 438.57L275.33 438.33L274.62 438.09L273.92 437.84L273.22 437.58L272.52 437.32L271.82 437.05L271.12 436.77L270.42 436.49L269.72 436.2L269.03 435.91L268.33 435.61L267.64 435.31L266.95 435L266.27 434.69L265.58 434.38L264.9 434.06L264.22 433.74L263.54 433.42L262.87 433.09L262.2 432.76L261.53 432.43L260.87 432.1L260.21 431.76L259.55 431.42L258.9 431.09L258.25 430.75L257.61 430.41L256.97 430.07L256.34 429.74L255.71 429.4L255.08 429.06L254.46 428.72L253.85 428.39L253.24 428.06L252.64 427.72L252.04 427.4L251.45 427.07L250.86 426.74L250.28 426.42L249 425.72L247.73 425L246.46 424.28L245.19 423.56L243.92 422.83L242.66 422.09L241.4 421.35L240.14 420.6L238.88 419.85L237.63 419.1L236.38 418.34L235.13 417.57L233.88 416.8L232.64 416.03L231.4 415.25L230.16 414.48L228.92 413.69L227.68 412.91L226.45 412.12L225.22 411.33L223.98 410.54L222.75 409.74L221.53 408.94L220.3 408.14L219.07 407.34L217.85 406.54L216.63 405.74L215.4 404.93L214.18 404.13L212.96 403.32L211.74 402.52L210.52 401.71L209.31 400.9L208.09 400.1L206.87 399.29L205.65 398.49L204.44 397.68L203.22 396.88L202 396.08L200.79 395.28L200.72 395.21L200.66 395.14L200.59 395.08L200.52 395.01L200.45 394.94L200.38 394.86L200.31 394.79L200.24 394.72L200.16 394.64L200.09 394.56L200.01 394.48L199.94 394.4L199.87 394.32L199.79 394.24L199.72 394.16L199.64 394.07L199.57 393.99L199.49 393.9L199.42 393.82L199.35 393.73L199.28 393.64L199.21 393.55L199.14 393.46L199.07 393.37L199 393.28L198.94 393.19L198.87 393.1L198.81 393L198.75 392.91L198.69 392.82L198.63 392.72L198.58 392.63L198.52 392.53L198.47 392.44L198.43 392.34L198.38 392.25L198.34 392.15L198.3 392.05L198.26 391.96L198.23 391.86L198.16 391.83L198.04 391.77L196.95 391.22L196.18 390.84L195.86 390.68L195.8 390.65L195.73 390.61L195.67 390.58L195.51 390.49L195.35 390.39L195.18 390.29L195.02 390.19L194.85 390.08L194.68 389.98L194.51 389.88L194.34 389.77L194.17 389.66L194 389.56L193.64 389.34L193.47 389.23L193.29 389.12L193.11 389.01L192.93 388.9L192.75 388.78L192.57 388.67L192.39 388.56L192.2 388.45L192.02 388.34L191.83 388.23L191.65 388.11L191.46 388L191.27 387.89L191.08 387.78L190.9 387.67L190.71 387.56L190.52 387.45L190.33 387.34L190.14 387.23L189.95 387.13L189.76 387.02L189.57 386.92L189.37 386.81L189.18 386.71L188.99 386.61L188.8 386.51L188.61 386.41L188.42 386.32L188.16 386.28L187.9 386.25L187.65 386.23L187.39 386.2L187.14 386.17L186.88 386.15L186.62 386.13L186.37 386.1L186.11 386.08L185.86 386.06L185.6 386.04L185.34 386.02L185.09 386.01L184.83 385.99L184.58 385.97L184.32 385.95L184.06 385.94L183.81 385.92L183.55 385.91L183.04 385.87L182.78 385.86L182.53 385.84L182.27 385.82L182.02 385.81L181.76 385.79L181.5 385.77L181.25 385.75L180.99 385.74L180.74 385.72L180.48 385.7L180.22 385.67L179.97 385.65L179.71 385.63L179.46 385.6L179.2 385.58L178.94 385.55L178.69 385.52L178.43 385.49L178.18 385.46L177.63 385.56L177.09 385.65L176.54 385.74L176 385.82L175.46 385.9L174.91 385.98L174.37 386.06L173.82 386.13L173.28 386.2L172.74 386.26L172.19 386.32L171.65 386.38L171.1 386.44L170.56 386.49L170.02 386.54L169.47 386.59L168.93 386.63L168.38 386.67L167.84 386.71L167.3 386.74L166.75 386.77L166.21 386.8L165.66 386.82L165.12 386.84L164.58 386.86L164.03 386.88L163.49 386.89L162.94 386.9L162.4 386.9L161.86 386.9L161.31 386.9L160.77 386.9L160.22 386.89L159.68 386.88L159.14 386.86L158.59 386.84L158.05 386.82L157.5 386.8L156.96 386.77L156.42 386.74L155.36 386.64L154.3 386.53L153.25 386.42L152.19 386.29L151.14 386.16L150.09 386.01L149.03 385.86L147.98 385.7L146.94 385.53L145.89 385.34L144.84 385.15L143.8 384.95L142.76 384.73L141.72 384.5L140.69 384.27L139.66 384.02L138.63 383.76L137.6 383.49L136.58 383.2L135.56 382.9L134.55 382.59L133.54 382.27L132.53 381.93L131.53 381.58L130.54 381.22L129.55 380.84L128.56 380.45L127.58 380.04L126.6 379.62L125.64 379.18L124.67 378.73L123.72 378.26L122.77 377.78L121.82 377.28L120.88 376.77L119.95 376.24L119.03 375.69L118.12 375.12L117.21 374.54L116.31 373.94L114.66 372.8L113.04 371.62L111.45 370.41L109.89 369.15L108.37 367.86L106.87 366.53L105.42 365.17L103.99 363.77L102.61 362.34L101.26 360.88L99.94 359.39L98.67 357.86L97.43 356.31L96.24 354.73L95.08 353.11L93.97 351.48L92.9 349.81L91.88 348.12L90.9 346.4L89.96 344.66L89.07 342.9L88.23 341.11L87.44 339.31L86.69 337.48L86 335.63L85.36 333.76L84.76 331.88L84.23 329.98L83.74 328.06L83.31 326.12L82.93 324.17L82.61 322.21L82.35 320.23L82.14 318.24L82 316.24L81.91 314.23L81.88 312.21L81.92 310.18L82.01 308.15L82.18 306.1L82.39 303.89L82.66 301.67L82.97 299.44L83.33 297.21L83.74 294.97L84.2 292.74L84.71 290.51L85.26 288.28L85.87 286.07L86.53 283.86L87.24 281.67L87.99 279.49L88.8 277.33L89.66 275.19L90.57 273.07L91.53 270.98L92.54 268.91L93.6 266.88L94.72 264.87L95.88 262.9L97.1 260.97L98.37 259.08L99.69 257.22L101.07 255.41L102.5 253.65L103.98 251.94L105.51 250.28L107.1 248.67L108.74 247.12L110.44 245.62L112.18 244.19L113.99 242.82L115.85 241.51L117.76 240.28L119.72 239.11L121.75 238.02L123.82 237L125.96 236.06L128.14 235.2L130.39 234.42L132.41 233.77L134.46 233.16L136.53 232.6L138.61 232.07L140.71 231.59L142.82 231.14L144.95 230.74L147.1 230.37L149.25 230.04L151.42 229.75L153.6 229.49L155.79 229.27L157.99 229.09L160.19 228.94L162.41 228.82L164.62 228.74L166.85 228.68L169.07 228.66L171.3 228.67L173.54 228.72L175.77 228.79L178 228.89L180.23 229.01L182.46 229.17L184.68 229.35L186.91 229.56L189.12 229.79L191.33 230.05L193.53 230.34L195.73 230.64L197.91 230.97L200.09 231.32L202.25 231.7L204.4 232.09L206.54 232.5L208.67 232.94L210.78 233.39L212.87 233.86L214.94 234.35L217 234.85L217 234.82L217 234.79L217.01 234.75L217.01 234.72L217.02 234.69L217.03 234.66L217.04 234.63L217.05 234.59L217.06 234.56L217.08 234.53L217.09 234.5L217.11 234.47L217.12 234.43L217.14 234.4L217.16 234.37L217.18 234.34L217.2 234.31L217.22 234.27L217.24 234.24L217.27 234.21L217.29 234.18L217.32 234.15L217.34 234.11L217.37 234.08L217.4 234.05L217.43 234.02L217.45 233.99L217.48 233.95L217.51 233.92L217.54 233.89L217.57 233.86L217.6 233.83L217.63 233.79L217.66 233.76L217.7 233.73L217.73 233.7L217.76 233.67L217.79 233.63L217.82 233.6L217.86 233.57L220.64 231.33L223.43 229.08L226.22 226.84L229.01 224.59L231.8 222.35L234.6 220.1L237.4 217.86L240.21 215.62L243.02 213.38L245.84 211.15L248.66 208.92L251.48 206.7L254.31 204.49L257.15 202.28L260 200.08L262.85 197.89L265.71 195.71L268.58 193.55L271.45 191.39L274.34 189.25L277.23 187.12L280.13 185.01L283.04 182.91L285.96 180.82L288.89 178.76L291.83 176.71L294.79 174.68L297.75 172.67L300.73 170.68L303.72 168.71L306.72 166.76L309.73 164.84L312.75 162.94L315.79 161.06L318.85 159.21L321.92 157.39L325 155.59L328.09 153.82L331.21 152.08L334.34 150.37L334.56 150.25L334.79 150.13L335.03 150.03L335.27 149.93L335.51 149.85L335.76 149.77L336 149.7L336.26 149.64L336.51 149.59L336.77 149.55L337.03 149.52L337.29 149.49L337.55 149.47L337.81 149.46L338.08 149.46L338.34 149.47L338.61 149.48ZM320.9 433.08L322.18 433.42L322.82 433.68L322.82 432.82L322.18 432.58L321.54 432.45L320.9 432.4L320.26 432.4L320.26 432.82L320.9 433.08ZM321.11 401.25L321.06 402.06L320.96 402.94L320.83 403.83L320.73 404.7L320.68 405.52L320.68 408.93L321.19 409.74L321.71 410.62L322.22 411.51L322.73 412.38L323.24 413.2L323.24 410.64L323.21 408.08L323.15 405.52L323.02 402.96L322.82 400.4L321.11 400.4L321.11 401.25ZM218.11 382.84L217.6 382.97L217.09 383.12L216.58 383.33L216.27 383.84L215.86 384.35L215.35 384.87L214.73 385.38L214.02 385.89L215.55 386.61L217.11 387.27L218.72 387.92L220.38 388.58L222.12 389.3L222.64 389.56L223.17 389.84L223.75 390.16L224.39 390.54L225.11 391.01L224.39 389.99L223.75 388.96L223.17 387.94L222.64 386.91L222.12 385.89L221.4 385.17L220.76 384.5L220.19 383.86L219.65 383.2L219.14 382.48L218.62 382.69L218.11 382.84ZM321 386.17L321.64 387.74L321.96 388.45L321.64 385.64L321 380.17L320.68 377.36L320.68 385.46L321 386.17ZM178.92 366.01L178.6 366.26L179.24 366.5L179.83 366.58L180.34 366.5L180.74 366.26L180.48 366.19L180.31 366L180.14 365.72L179.88 365.41L179.56 365.66L178.92 366.01ZM146.87 355.76L147.14 357.23L147.46 358.58L148.34 358.9L149.11 359.22L149.8 359.54L150.44 359.86L150.06 358.2L149.12 354.7L148.74 353.04L148.16 352.97L147.18 352.68L146.6 352.61L146.68 354.2L146.87 355.76ZM195.82 354.78L195.24 355.17L196.2 355.1L198.12 354.81L199.08 354.74L198.7 354.42L197.76 353.78L197.38 353.46L196.8 353.85L195.82 354.78ZM134.98 352.01L135.35 352.18L135.8 352.36L136.36 352.61L136.36 351.76L134.66 351.76L134.98 352.01ZM170.07 346.8L168.79 346.99L167.51 347.06L166.62 347.7L165.8 348.29L164.99 348.8L164.1 349.2L165.45 350.08L166.92 350.85L168.48 351.54L170.07 352.18L171.25 350.83L172.15 349.36L172.65 347.8L172.63 346.21L171.35 346.52L170.07 346.8ZM186.12 347.06L185.76 347.7L185.43 348.34L185.18 348.42L185.06 348.61L185.01 348.88L185 349.2L185.9 348.56L187.52 347.28L188.42 346.64L188.1 346.38L187.46 346.04L187.14 345.78L186.57 346.42L186.12 347.06ZM222.76 340.08L223.08 340.52L223.4 341.09L223.66 341.48L223.83 342L224 342.59L224.26 343.22L224.9 342.76L225.54 342.1L226.18 341.36L226.82 340.66L225.6 340.34L223.34 339.7L222.12 339.38L222.44 339.71L222.76 340.08ZM295.25 315.7L295 316.83L294.74 317.98L294.48 319.11L294.23 320.18L294.27 320.91L294.38 321.57L294.5 322.21L294.61 322.87L294.66 323.6L295.17 324.41L295.71 325.28L296.28 326.18L296.92 327.05L297.64 327.86L297.34 325.25L296.98 322.56L296.6 319.81L296.24 317.02L295.94 314.21L295.51 314.64L295.25 315.7ZM205.75 314.9L204.92 315.82L204.2 316.77L205.16 315.88L206.07 315.06L206.9 314.25L207.62 313.36L206.66 314.07L205.75 314.9ZM184.63 299.76L183.94 301.16L183.3 302.69L183.94 302.63L184.63 302.53L185.4 302.51L186.28 302.69L186.28 297.14L185.4 298.43L184.63 299.76ZM153.09 281.25L151.7 282.4L150.38 283.64L149.14 284.94L148.02 286.32L147.03 287.76L147.21 288.65L147.39 289.5L147.58 290.33L147.76 291.15L147.94 291.99L148.13 292.84L148.31 293.73L149.25 291.38L150.24 289.1L151.29 286.9L152.38 284.8L153.53 282.81L154.73 280.94L155.99 279.22L154.53 280.19L153.09 281.25ZM323.04 241.8L322.95 242.52L322.85 243.25L322.75 243.98L322.65 244.72L322.55 245.46L322.45 246.2L322.36 246.93L322.26 247.66L322.16 248.38L322.06 249.09L321.96 249.78L322.06 251.66L322.16 253.55L322.26 255.45L322.36 257.36L322.45 259.28L322.55 261.2L322.65 263.12L322.75 265.03L322.85 266.95L322.95 268.86L323.04 270.76L323.14 272.65L323.24 274.53L323.24 272.4L323.24 271.71L323.24 271.02L323.25 270.33L323.25 269.65L323.27 268.97L323.28 268.3L323.31 267.64L323.34 266.98L323.38 266.33L323.44 265.7L323.5 265.07L323.58 264.46L323.67 263.86L323.66 262.08L323.64 260.29L323.61 258.49L323.57 256.68L323.53 254.86L323.48 253.04L323.43 251.22L323.38 249.4L323.34 247.58L323.3 245.77L323.27 243.97L323.25 242.18L323.24 240.4L323.14 241.09L323.04 241.8ZM271.08 267.56L270.76 268.13L271.19 268.13L271.44 268.45L271.79 269.09L272.04 269.41L272.05 269.16L272.1 269.04L272.22 268.99L272.47 268.98L272.22 268.28L272.1 267.49L272.05 266.7L272.04 266L271.72 266.57L271.08 267.56ZM129.8 263.86L128.8 264.68L127.83 265.57L128.4 265.32L128.9 265.2L129.39 265.15L129.96 265.14L130.54 264.5L131.03 263.81L131.52 263.04L132.1 262.16L130.89 263.05L129.8 263.86ZM279.72 260.88L279.73 260.24L279.78 259.6L279.9 258.96L280.15 258.32L279.72 258.32L279.72 260.88ZM231.46 252.98L230.86 253.3L230.23 253.62L230.66 254.05L231.22 253.72L231.67 253.36L232.04 252.91L232.36 252.34L231.97 252.66L231.46 252.98ZM280.36 248.44L279.72 249.78L280.04 250.36L280.68 251.34L281 251.92L281.08 250L281.32 248.08L281.72 246.16L282.28 244.24L281.64 245.58L280.36 248.44ZM183.94 238.98L185.18 239.52L186.41 239.97L187.6 240.3L188.71 240.46L189.7 240.4L190.98 240.19L192.27 239.95L193.57 239.68L194.89 239.41L196.25 239.14L197.64 238.9L199.08 238.69L196.68 238.66L194.23 238.59L191.75 238.49L189.23 238.35L186.7 238.19L184.15 238.02L181.59 237.84L182.73 238.4L183.94 238.98ZM312.49 193.19L311.47 194.36L309.93 196.04L308.39 197.71L306.86 199.39L305.32 201.14L305.58 201.44L305.83 201.8L306.09 202.19L306.35 202.55L306.6 202.85L307.62 201.36L308.62 199.93L309.58 198.52L310.48 197.09L311.3 195.6L311.55 194.88L311.83 194.24L312.16 193.66L312.49 193.19L313 192.61L312.54 193.12L312.49 193.19Z" id="brLfMrt2k"></path><path d="M500.07 263.38L500.13 263.39L500.19 263.4L500.26 263.43L500.32 263.45L500.35 263.49L500.39 263.52L500.42 263.55L500.46 263.58L500.5 263.61L500.54 263.65L500.58 263.68L500.62 263.71L500.67 263.74L500.71 263.77L500.76 263.81L500.81 263.84L500.86 263.87L500.91 263.9L500.96 263.93L501.01 263.97L501.06 264L501.12 264.03L501.17 264.06L501.23 264.09L501.28 264.13L501.34 264.16L501.4 264.19L501.46 264.22L501.52 264.25L501.57 264.29L501.64 264.32L501.7 264.35L501.76 264.38L501.82 264.41L501.88 264.45L501.94 264.48L502.01 264.51L502.07 264.54L502.13 264.57L502.2 264.61L502.26 264.64L502.32 264.67L502.39 264.7L502.45 264.73L502.55 264.7L502.64 264.67L502.74 264.65L502.84 264.62L502.93 264.59L503.03 264.57L503.12 264.55L503.22 264.53L503.32 264.51L503.41 264.49L503.51 264.47L503.6 264.45L503.7 264.44L503.8 264.42L503.89 264.41L503.99 264.4L504.08 264.39L504.18 264.38L504.28 264.37L504.37 264.36L504.47 264.35L504.56 264.35L504.66 264.34L504.76 264.34L504.85 264.33L504.95 264.33L505.04 264.32L505.14 264.32L505.24 264.32L505.33 264.31L505.43 264.31L505.52 264.31L505.62 264.31L505.72 264.31L505.81 264.31L505.91 264.31L506 264.31L506.1 264.31L506.2 264.31L506.29 264.31L506.9 264.31L507.51 264.32L508.12 264.34L508.72 264.37L509.33 264.4L509.94 264.44L510.55 264.49L511.15 264.54L511.76 264.6L512.37 264.67L512.97 264.74L513.58 264.81L514.18 264.9L514.79 264.98L515.39 265.07L515.99 265.17L516.6 265.27L517.2 265.37L517.8 265.48L518.4 265.59L519 265.7L519.6 265.82L520.2 265.94L520.79 266.06L521.39 266.18L521.98 266.31L522.58 266.44L523.17 266.57L523.76 266.7L524.35 266.83L524.94 266.96L525.53 267.09L526.12 267.23L526.7 267.36L527.29 267.49L527.87 267.63L528.45 267.76L529.03 267.89L529.61 268.02L530.19 268.15L530.34 268.18L530.49 268.23L530.62 268.28L530.75 268.34L530.87 268.4L530.98 268.48L531.08 268.55L531.17 268.64L531.25 268.73L531.32 268.83L531.38 268.93L531.44 269.04L531.48 269.15L531.52 269.27L531.55 269.39L531.57 269.52L531.58 269.65L531.59 269.79L531.58 269.93L531.57 270.07L531.55 270.21L531.52 270.36L531.49 270.51L531.45 270.67L531.39 270.82L531.34 270.98L531.27 271.14L531.2 271.3L531.11 271.46L531.03 271.63L530.93 271.79L530.83 271.96L530.72 272.12L530.6 272.29L530.48 272.45L530.35 272.62L530.21 272.78L530.07 272.94L529.92 273.11L529.76 273.27L529.15 273.53L528.55 273.79L527.94 274.05L527.34 274.32L526.74 274.59L526.14 274.86L525.54 275.13L524.94 275.41L524.35 275.69L523.75 275.97L523.16 276.26L522.57 276.55L521.98 276.84L521.39 277.13L520.8 277.42L520.21 277.72L519.62 278.02L519.04 278.32L518.45 278.62L517.87 278.92L517.28 279.23L516.7 279.53L516.12 279.84L515.54 280.15L514.96 280.46L514.37 280.77L513.8 281.08L513.22 281.4L512.64 281.71L512.06 282.03L511.48 282.34L510.9 282.66L510.33 282.98L509.75 283.3L509.17 283.62L508.6 283.94L508.02 284.25L507.44 284.57L506.87 284.89L506.29 285.21L505.43 285.95L504.57 286.69L503.71 287.43L502.86 288.17L502.01 288.91L501.16 289.66L500.32 290.41L499.48 291.15L498.64 291.9L497.8 292.65L496.96 293.41L496.13 294.16L495.3 294.92L494.47 295.68L493.65 296.43L492.82 297.2L492 297.96L491.18 298.72L490.36 299.49L489.55 300.25L488.73 301.02L487.92 301.79L487.1 302.57L486.29 303.34L485.48 304.11L484.68 304.89L483.87 305.67L483.06 306.45L482.26 307.23L481.45 308.01L480.65 308.8L479.85 309.59L479.04 310.37L478.24 311.16L477.44 311.95L476.64 312.75L475.84 313.54L475.04 314.34L474.24 315.14L473.44 315.93L474.14 317.06L474.84 318.18L475.53 319.3L476.22 320.43L476.9 321.56L477.58 322.69L478.25 323.82L478.92 324.95L479.58 326.09L480.24 327.23L480.89 328.37L481.54 329.51L482.19 330.66L482.82 331.81L483.46 332.96L484.09 334.11L484.71 335.27L485.33 336.43L485.95 337.59L486.56 338.76L487.16 339.93L487.77 341.1L488.36 342.28L488.95 343.46L489.54 344.64L490.12 345.83L490.7 347.02L491.27 348.21L491.84 349.41L492.4 350.61L492.96 351.82L493.51 353.03L494.06 354.24L494.6 355.46L495.14 356.69L495.67 357.91L496.2 359.15L496.73 360.38L497.24 361.62L497.76 362.87L497.77 362.87L497.79 362.87L497.79 362.87L497.8 362.87L497.81 362.87L497.83 362.87L497.84 362.88L497.85 362.88L497.87 362.88L497.88 362.89L497.89 362.89L497.91 362.9L497.93 362.9L497.94 362.91L497.96 362.91L497.97 362.92L497.99 362.93L498 362.94L498.02 362.95L498.04 362.96L498.05 362.97L498.07 362.98L498.08 363L498.09 363.01L498.11 363.03L498.12 363.05L498.13 363.07L498.14 363.09L498.15 363.11L498.16 363.13L498.17 363.15L498.17 363.18L498.18 363.21L498.18 363.23L498.19 363.26L498.19 363.29L498.31 363.42L498.44 363.55L498.57 363.68L498.7 363.81L498.83 363.93L498.95 364.06L499.08 364.19L499.21 364.32L499.34 364.44L499.47 364.57L499.59 364.69L499.72 364.82L499.85 364.94L499.98 365.07L500.11 365.19L500.23 365.32L500.36 365.44L500.49 365.56L500.62 365.68L500.75 365.8L500.87 365.92L501 366.04L501.13 366.16L501.26 366.27L501.39 366.39L501.51 366.51L501.64 366.62L501.77 366.73L501.9 366.84L502.03 366.95L502.15 367.06L502.28 367.17L502.41 367.28L502.54 367.38L502.67 367.49L502.79 367.59L502.92 367.69L503.05 367.79L503.18 367.89L503.31 367.99L503.4 368.05L503.49 368.13L503.58 368.2L503.66 368.28L503.74 368.36L503.82 368.45L503.89 368.54L503.96 368.63L504.03 368.73L504.09 368.83L504.14 368.93L504.19 369.03L504.24 369.14L504.28 369.24L504.32 369.35L504.35 369.46L504.38 369.57L504.4 369.68L504.42 369.8L504.43 369.91L504.43 370.02L504.43 370.13L504.42 370.24L504.41 370.35L504.39 370.46L504.37 370.57L504.34 370.68L504.3 370.78L504.26 370.89L504.21 370.99L504.15 371.09L504.08 371.18L504.01 371.28L503.93 371.37L503.85 371.45L503.76 371.54L503.65 371.62L503.55 371.69L503.43 371.76L503.31 371.83L502.54 372.17L501.76 372.5L500.99 372.82L500.21 373.12L499.43 373.41L498.64 373.69L497.86 373.95L497.07 374.2L496.27 374.43L495.48 374.65L494.68 374.86L493.88 375.06L493.08 375.25L492.28 375.42L491.47 375.58L490.66 375.73L489.85 375.86L489.04 375.99L488.23 376.1L487.41 376.2L486.6 376.29L485.78 376.37L484.96 376.44L484.14 376.5L483.31 376.54L482.49 376.58L481.67 376.61L480.84 376.62L480.01 376.63L479.19 376.63L478.36 376.62L477.53 376.59L476.7 376.56L475.87 376.52L475.04 376.47L474.21 376.41L473.37 376.35L472.54 376.27L471.71 376.19L470.88 376.09L470.78 376.06L470.69 376.03L470.61 376L470.52 375.97L470.44 375.93L470.36 375.9L470.28 375.87L470.21 375.84L470.14 375.8L470.07 375.77L470 375.73L469.93 375.7L469.87 375.66L469.81 375.63L469.75 375.59L469.7 375.56L469.64 375.52L469.59 375.48L469.54 375.44L469.49 375.4L469.45 375.36L469.4 375.32L469.36 375.28L469.31 375.23L469.27 375.19L469.23 375.15L469.19 375.1L469.15 375.05L469.12 375L469.08 374.95L469.04 374.9L469.01 374.85L468.97 374.8L468.94 374.74L468.91 374.69L468.87 374.63L468.84 374.57L468.81 374.51L468.78 374.45L468.75 374.39L468.68 374.26L468.62 374.13L468.56 374L468.5 373.86L468.44 373.73L468.39 373.59L468.33 373.46L468.28 373.32L468.23 373.18L468.17 373.04L468.12 372.9L468.07 372.76L468.02 372.62L467.97 372.48L467.92 372.33L467.87 372.19L467.82 372.05L467.78 371.9L467.73 371.76L467.63 371.47L467.58 371.33L467.53 371.18L467.49 371.04L467.44 370.9L467.39 370.75L467.34 370.61L467.29 370.47L467.24 370.33L467.19 370.19L467.13 370.05L467.08 369.91L467.03 369.77L466.97 369.64L466.91 369.5L466.86 369.37L466.8 369.23L466.74 369.1L466.68 368.97L466.61 368.84L466.49 368.87L466.36 368.89L466.24 368.9L466.13 368.9L466.01 368.89L465.91 368.87L465.8 368.85L465.7 368.82L465.6 368.78L465.51 368.73L465.42 368.68L465.33 368.63L465.25 368.56L465.17 368.49L465.1 368.42L465.03 368.34L464.96 368.26L464.9 368.17L464.85 368.08L464.8 367.99L464.75 367.89L464.71 367.79L464.68 367.69L464.65 367.58L464.62 367.47L464.6 367.37L464.59 367.26L464.58 367.14L464.57 367.03L464.57 366.92L464.58 366.81L464.59 366.7L464.61 366.59L464.63 366.48L464.66 366.37L464.7 366.26L464.74 366.16L464.79 366.05L464.85 365.95L464.91 365.85L464.68 365.53L464.46 365.21L464.25 364.87L464.04 364.54L463.83 364.2L463.62 363.86L463.41 363.52L463.21 363.17L463.01 362.82L462.82 362.47L462.63 362.12L462.44 361.77L462.25 361.42L462.07 361.07L461.88 360.72L461.7 360.37L461.53 360.02L461.35 359.67L461.18 359.32L461.01 358.97L460.85 358.63L460.68 358.29L460.52 357.95L460.36 357.62L460.2 357.29L460.05 356.97L459.89 356.65L459.74 356.33L459.59 356.02L459.45 355.71L459.3 355.42L459.16 355.12L459.02 354.84L458.88 354.56L458.74 354.29L458.6 354.02L458.47 353.77L458.34 353.52L458.21 353.28L458.08 353.05L457.95 352.8L457.82 352.54L457.7 352.28L457.57 352.02L457.44 351.76L457.31 351.49L457.18 351.23L457.06 350.96L456.93 350.7L456.8 350.43L456.67 350.16L456.54 349.89L456.42 349.62L456.29 349.35L456.16 349.08L456.03 348.81L455.9 348.54L455.78 348.27L455.65 347.99L455.39 347.45L455.26 347.18L455.14 346.91L455.01 346.63L454.88 346.36L454.75 346.09L454.62 345.82L454.5 345.55L454.37 345.28L454.24 345.01L454.11 344.75L453.98 344.48L453.86 344.21L453.73 343.95L453.6 343.69L453.47 343.42L453.34 343.16L453.22 342.9L453.09 342.64L452.96 342.39L452.77 342.1L452.7 342L452.58 341.81L452.51 341.72L452.45 341.62L452.38 341.52L452.26 341.33L452.19 341.24L452.13 341.14L452.06 341.04L452 340.95L451.94 340.85L451.87 340.76L451.81 340.66L451.74 340.56L451.68 340.47L451.62 340.37L451.1 339.6L450.98 339.41L450.78 339.12L450.66 338.93L450.53 338.74L450.4 338.55L449.95 339.22L449.51 339.89L449.07 340.57L448.63 341.25L448.19 341.92L447.76 342.6L447.32 343.27L446.89 343.95L446.45 344.63L446.02 345.3L445.59 345.97L445.15 346.65L444.71 347.32L444.28 347.98L443.84 348.65L443.4 349.31L442.95 349.97L442.5 350.63L442.05 351.28L441.6 351.93L441.14 352.58L440.68 353.22L440.21 353.86L439.74 354.49L439.26 355.12L438.78 355.74L438.29 356.36L437.79 356.97L437.29 357.57L436.78 358.17L436.26 358.76L435.74 359.34L435.2 359.92L434.66 360.49L434.11 361.05L433.55 361.6L432.97 362.14L432.39 362.68L431.8 363.2L431.2 363.72L431.01 363.88L430.81 364.03L430.61 364.19L430.41 364.34L430.2 364.48L429.99 364.62L429.78 364.76L429.56 364.9L429.35 365.03L429.13 365.15L428.9 365.28L428.68 365.4L428.45 365.52L428.22 365.63L427.98 365.74L427.75 365.84L427.51 365.95L427.26 366.04L427.02 366.14L426.77 366.23L426.52 366.31L426.27 366.4L426.02 366.47L425.76 366.55L425.5 366.62L425.24 366.68L424.98 366.74L424.72 366.8L424.45 366.85L424.18 366.9L423.91 366.94L423.64 366.98L423.36 367.02L423.08 367.05L422.81 367.08L422.52 367.1L422.24 367.11L421.96 367.12L421.67 367.13L421.39 367.13L421.29 367.23L421.19 367.31L421.08 367.39L420.98 367.46L420.87 367.52L420.76 367.57L420.65 367.62L420.54 367.66L420.42 367.69L420.31 367.72L420.19 367.74L420.07 367.76L419.96 367.77L419.84 367.77L419.72 367.76L419.6 367.76L419.49 367.74L419.37 367.72L419.26 367.7L419.15 367.67L419.03 367.63L418.93 367.59L418.82 367.55L418.71 367.5L418.61 367.45L418.51 367.4L418.41 367.34L418.32 367.27L418.23 367.2L418.15 367.13L418.06 367.06L417.99 366.98L417.91 366.9L417.84 366.82L417.78 366.74L417.72 366.65L417.67 366.56L417.62 366.47L417.58 366.38L417.55 366.28L417.39 366.22L417.23 366.15L417.07 366.08L416.91 366.01L416.75 365.94L416.58 365.87L416.42 365.8L416.26 365.72L416.1 365.65L415.94 365.57L415.78 365.5L415.61 365.42L415.45 365.34L415.29 365.26L415.12 365.19L414.96 365.11L414.79 365.03L414.63 364.95L414.46 364.87L414.29 364.79L414.12 364.71L413.96 364.63L413.78 364.55L413.61 364.47L413.44 364.39L413.27 364.31L413.09 364.23L412.92 364.15L412.74 364.08L412.57 364L412.39 363.93L412.21 363.85L412.03 363.78L411.84 363.7L411.66 363.63L411.47 363.56L411.29 363.49L411.1 363.43L410.91 363.36L410.72 363.29L410.59 363.26L410.46 363.23L410.33 363.2L410.19 363.17L410.06 363.13L409.92 363.1L409.79 363.07L409.65 363.04L409.51 363L409.37 362.97L409.22 362.93L409.08 362.9L408.93 362.86L408.79 362.83L408.64 362.79L408.49 362.76L408.34 362.72L408.2 362.68L408.04 362.64L407.89 362.6L407.74 362.56L407.59 362.52L407.43 362.48L407.28 362.43L407.12 362.39L406.97 362.35L406.81 362.3L406.65 362.25L406.5 362.2L406.34 362.15L406.18 362.1L406.02 362.05L405.86 362L405.7 361.94L405.55 361.89L405.39 361.83L405.23 361.77L405.07 361.71L404.91 361.65L404.75 361.59L404.71 361.59L404.68 361.59L404.65 361.59L404.62 361.6L404.59 361.61L404.55 361.61L404.52 361.62L404.49 361.63L404.46 361.64L404.43 361.65L404.39 361.67L404.36 361.68L404.33 361.69L404.3 361.71L404.27 361.72L404.23 361.74L404.2 361.75L404.17 361.77L404.14 361.79L404.07 361.82L404.04 361.83L404.01 361.85L403.98 361.86L403.95 361.88L403.91 361.89L403.88 361.91L403.85 361.92L403.82 361.94L403.79 361.95L403.75 361.96L403.72 361.97L403.69 361.98L403.66 361.99L403.63 362L403.59 362L403.56 362.01L403.53 362.01L403.5 362.01L403.47 362.01L403.37 362.04L403.28 362.07L403.19 362.08L403.1 362.09L403.01 362.1L402.92 362.1L402.84 362.09L402.76 362.08L402.68 362.06L402.6 362.04L402.52 362.01L402.45 361.98L402.38 361.95L402.32 361.91L402.25 361.86L402.19 361.82L402.13 361.76L402.07 361.71L402.02 361.65L401.97 361.59L401.93 361.52L401.88 361.45L401.84 361.38L401.81 361.31L401.77 361.23L401.75 361.15L401.72 361.07L401.7 360.99L401.68 360.9L401.67 360.81L401.66 360.73L401.65 360.64L401.65 360.54L401.65 360.45L401.66 360.36L401.67 360.26L401.68 360.17L401.7 360.07L401.73 359.98L401.76 359.88L401.73 359.85L401.7 359.82L401.67 359.79L401.64 359.75L401.62 359.72L401.6 359.69L401.57 359.66L401.55 359.63L401.54 359.59L401.52 359.56L401.5 359.53L401.49 359.5L401.48 359.47L401.47 359.43L401.46 359.4L401.45 359.37L401.45 359.34L401.44 359.31L401.44 359.27L401.44 359.24L401.44 359.21L401.44 359.18L401.45 359.15L401.45 359.11L401.46 359.08L401.47 359.05L401.48 359.02L401.49 358.99L401.5 358.95L401.52 358.92L401.54 358.89L401.55 358.86L401.57 358.83L401.6 358.79L401.62 358.76L401.64 358.73L401.67 358.7L401.7 358.67L401.73 358.63L401.76 358.6L401.73 358.63L401.7 358.66L401.66 358.69L401.63 358.72L401.6 358.74L401.57 358.77L401.54 358.79L401.5 358.81L401.47 358.83L401.44 358.85L401.41 358.87L401.38 358.89L401.34 358.91L401.31 358.93L401.28 358.95L401.25 358.96L401.22 358.98L401.18 359L401.15 359.01L401.09 359.04L401.06 359.06L401.02 359.08L400.99 359.09L400.96 359.11L400.93 359.13L400.9 359.14L400.86 359.16L400.83 359.18L400.8 359.2L400.77 359.22L400.74 359.24L400.7 359.27L400.67 359.29L400.64 359.31L400.61 359.34L400.58 359.37L400.54 359.39L400.51 359.42L400.48 359.45L400.45 359.48L400.42 359.51L400.38 359.54L400.35 359.56L400.32 359.58L400.29 359.59L400.26 359.6L400.23 359.61L400.2 359.62L400.17 359.63L400.15 359.63L400.12 359.63L400.09 359.63L400.07 359.63L400.04 359.62L400.02 359.61L400 359.6L399.98 359.59L399.96 359.58L399.95 359.56L399.93 359.54L399.92 359.53L399.91 359.51L399.9 359.49L399.89 359.46L399.88 359.44L399.88 359.41L399.88 359.39L399.88 359.36L399.88 359.33L399.88 359.31L399.89 359.28L399.9 359.25L399.92 359.22L399.93 359.19L399.95 359.15L399.97 359.12L399.99 359.09L400.02 359.06L400.05 359.03L400.44 358.71L400.81 358.38L401.19 358.06L401.56 357.74L401.93 357.41L402.3 357.08L402.66 356.75L403.03 356.42L403.38 356.08L403.74 355.75L404.09 355.41L404.44 355.07L404.79 354.73L405.13 354.39L405.48 354.05L405.81 353.7L406.15 353.36L406.49 353.01L406.82 352.66L407.15 352.31L407.47 351.96L407.8 351.6L408.12 351.24L408.44 350.89L408.76 350.53L409.07 350.17L409.39 349.8L409.7 349.44L410.01 349.08L410.31 348.71L410.62 348.34L410.92 347.97L411.22 347.6L411.52 347.22L411.82 346.85L412.11 346.47L412.41 346.09L412.7 345.71L412.99 345.33L413.28 344.95L413.34 344.85L413.41 344.76L413.48 344.66L413.55 344.56L413.62 344.47L413.69 344.37L413.76 344.28L413.84 344.18L413.91 344.08L413.99 343.99L414.06 343.89L414.14 343.8L414.22 343.7L414.3 343.6L414.37 343.51L414.45 343.41L414.53 343.32L414.61 343.22L414.69 343.12L414.85 342.93L414.93 342.84L415.01 342.74L415.09 342.64L415.17 342.55L415.25 342.45L415.33 342.36L415.41 342.26L415.48 342.16L415.56 342.07L415.63 341.97L415.71 341.88L415.78 341.78L415.86 341.68L415.93 341.59L416 341.49L416.07 341.4L416.13 341.3L416.2 341.2L416.27 341.11L416.3 341.04L416.33 340.98L416.37 340.92L416.41 340.85L416.44 340.79L416.48 340.72L416.52 340.66L416.57 340.6L416.61 340.53L416.65 340.47L416.7 340.4L416.74 340.34L416.79 340.28L416.83 340.21L416.88 340.15L416.93 340.08L416.98 340.02L417.02 339.96L417.07 339.89L417.17 339.76L417.22 339.7L417.26 339.64L417.31 339.57L417.36 339.51L417.4 339.44L417.45 339.38L417.5 339.32L417.54 339.25L417.59 339.19L417.63 339.12L417.67 339.06L417.71 339L417.75 338.93L417.79 338.87L417.83 338.8L417.87 338.74L417.91 338.68L417.94 338.61L417.97 338.55L418.1 338.29L418.23 338.04L418.36 337.79L418.5 337.54L418.63 337.29L418.77 337.04L418.91 336.8L419.05 336.55L419.19 336.31L419.33 336.07L419.48 335.83L419.62 335.59L419.77 335.36L419.92 335.12L420.07 334.89L420.23 334.66L420.38 334.43L420.54 334.2L420.69 333.97L420.85 333.75L421.01 333.52L421.18 333.3L421.34 333.08L421.51 332.86L421.67 332.65L421.84 332.43L422.01 332.22L422.18 332.01L422.36 331.8L422.53 331.59L422.71 331.38L422.89 331.18L423.07 330.97L423.25 330.77L423.43 330.57L423.62 330.37L423.8 330.17L423.99 329.98L424.18 329.78L424.37 329.59L424.69 329.11L425.02 328.63L425.34 328.15L425.67 327.67L425.99 327.19L426.32 326.71L426.65 326.23L426.98 325.75L427.32 325.28L427.65 324.8L427.99 324.33L428.33 323.85L428.67 323.38L429.01 322.9L429.35 322.43L429.7 321.96L430.04 321.49L430.39 321.03L430.74 320.56L431.09 320.09L431.45 319.63L431.8 319.17L432.16 318.71L432.51 318.25L432.87 317.8L433.23 317.34L433.6 316.89L433.96 316.44L434.33 315.99L434.69 315.55L435.06 315.11L435.43 314.66L435.8 314.23L436.18 313.79L436.55 313.36L436.93 312.93L437.31 312.5L437.69 312.08L438.07 311.66L438.45 311.24L438.42 311.21L438.39 311.18L438.36 311.15L438.34 311.11L438.31 311.08L438.29 311.05L438.26 311.02L438.24 310.99L438.22 310.95L438.2 310.92L438.18 310.89L438.16 310.86L438.14 310.83L438.12 310.79L438.11 310.76L438.09 310.73L438.07 310.7L438.06 310.67L438.04 310.63L438.01 310.57L437.99 310.54L437.98 310.51L437.96 310.47L437.94 310.44L437.93 310.41L437.91 310.38L437.89 310.35L437.87 310.31L437.85 310.28L437.83 310.25L437.81 310.22L437.79 310.19L437.77 310.15L437.74 310.12L437.72 310.09L437.69 310.06L437.66 310.03L437.63 309.99L437.6 309.96L437.57 309.99L437.53 310.02L437.5 310.04L437.46 310.06L437.42 310.08L437.38 310.1L437.34 310.11L437.3 310.12L437.26 310.12L437.21 310.13L437.17 310.13L437.12 310.13L437.08 310.12L437.03 310.11L436.98 310.1L436.94 310.09L436.89 310.08L436.84 310.06L436.79 310.04L436.75 310.01L436.7 309.99L436.65 309.96L436.6 309.93L436.55 309.9L436.51 309.87L436.46 309.83L436.41 309.79L436.37 309.75L436.32 309.71L436.28 309.66L436.24 309.61L436.19 309.57L436.15 309.51L436.11 309.46L436.07 309.41L436.03 309.35L436 309.29L435.96 309.23L435.93 309.17L435.89 309.11L435.89 309.01L435.89 308.92L435.89 308.82L435.88 308.72L435.87 308.63L435.87 308.53L435.86 308.44L435.84 308.34L435.83 308.25L435.82 308.15L435.8 308.06L435.79 307.97L435.77 307.87L435.75 307.78L435.74 307.69L435.72 307.6L435.69 307.51L435.67 307.42L435.65 307.33L435.63 307.24L435.6 307.15L435.58 307.07L435.55 306.98L435.52 306.9L435.5 306.81L435.47 306.73L435.44 306.65L435.41 306.57L435.38 306.49L435.35 306.41L435.32 306.33L435.29 306.25L435.26 306.18L435.23 306.11L435.2 306.03L435.17 305.96L435.14 305.89L435.1 305.83L435.07 305.76L435.04 305.69L434.75 305.31L434.46 304.93L434.17 304.54L433.87 304.16L433.58 303.77L433.28 303.39L432.99 303L432.69 302.62L432.39 302.23L432.09 301.85L431.78 301.46L431.48 301.07L431.17 300.69L430.87 300.3L430.56 299.91L430.25 299.52L429.94 299.13L429.64 298.74L429.32 298.35L429.01 297.96L428.7 297.57L428.39 297.18L428.07 296.78L427.76 296.39L427.44 295.99L427.13 295.59L426.81 295.2L426.49 294.8L426.18 294.4L425.86 293.99L425.54 293.59L425.22 293.19L424.9 292.78L424.58 292.38L424.27 291.97L423.95 291.56L423.63 291.15L423.31 290.74L422.99 290.32L422.67 289.91L422.25 289.4L421.84 288.88L421.43 288.37L421.02 287.86L420.61 287.34L420.21 286.83L419.82 286.31L419.42 285.8L419.04 285.28L418.65 284.76L418.28 284.24L417.9 283.72L417.54 283.19L417.18 282.67L416.83 282.14L416.49 281.61L416.15 281.07L415.83 280.54L415.51 280L415.2 279.45L414.9 278.91L414.61 278.36L414.33 277.81L414.06 277.25L413.81 276.69L413.56 276.13L413.33 275.56L413.11 274.99L412.9 274.41L412.71 273.83L412.52 273.24L412.36 272.65L412.2 272.05L412.07 271.45L411.94 270.84L411.84 270.23L411.75 269.61L411.67 268.99L411.61 268.36L411.57 267.72L411.39 267.68L411.21 267.64L411.04 267.58L410.88 267.51L410.73 267.43L410.59 267.35L410.46 267.26L410.34 267.16L410.23 267.05L410.13 266.94L410.04 266.82L409.96 266.7L409.89 266.58L409.83 266.45L409.77 266.32L409.73 266.19L409.7 266.05L409.67 265.91L409.66 265.78L409.65 265.64L409.66 265.51L409.67 265.37L409.7 265.24L409.73 265.11L409.77 264.98L409.83 264.86L409.89 264.74L409.96 264.63L410.04 264.52L410.13 264.42L410.23 264.33L410.34 264.24L410.46 264.16L410.59 264.09L410.73 264.03L410.88 263.98L411.04 263.94L411.21 263.91L411.39 263.89L411.57 263.88L413.71 263.88L415.04 263.87L416.36 263.88L417.67 263.94L418.95 264.02L420.23 264.14L421.48 264.28L422.73 264.46L423.95 264.68L425.16 264.92L426.36 265.19L427.54 265.5L428.71 265.84L429.86 266.2L430.99 266.6L432.11 267.02L433.22 267.48L434.31 267.96L435.38 268.48L436.45 269.02L437.49 269.59L438.53 270.19L439.54 270.81L440.55 271.46L441.54 272.14L442.51 272.85L443.48 273.59L444.42 274.35L445.36 275.13L446.28 275.94L447.19 276.78L448.08 277.64L448.96 278.53L449.83 279.44L450.68 280.38L451.52 281.34L452.34 282.32L453.16 283.33L453.96 284.36L454.74 285.42L455.52 286.49L455.61 286.59L455.71 286.69L455.8 286.79L455.89 286.89L455.98 286.99L456.07 287.1L456.16 287.2L456.24 287.31L456.33 287.42L456.41 287.53L456.5 287.64L456.58 287.75L456.66 287.86L456.74 287.98L456.82 288.09L456.91 288.21L456.99 288.32L457.07 288.44L457.15 288.56L457.23 288.68L457.31 288.8L457.39 288.92L457.47 289.04L457.55 289.17L457.71 289.41L457.79 289.54L457.87 289.66L457.96 289.79L458.04 289.91L458.12 290.04L458.21 290.17L458.3 290.29L458.38 290.42L458.47 290.55L458.56 290.68L458.65 290.8L458.74 290.93L458.84 291.06L458.93 291.19L459.86 290.36L460.8 289.53L461.74 288.71L462.68 287.89L463.63 287.08L464.59 286.27L465.54 285.47L466.51 284.67L467.47 283.88L468.45 283.1L469.42 282.33L470.4 281.56L471.39 280.8L472.38 280.05L473.37 279.32L474.37 278.59L475.37 277.87L476.38 277.16L477.39 276.46L478.4 275.77L479.42 275.1L480.44 274.44L481.47 273.79L482.49 273.16L483.53 272.53L484.57 271.93L485.61 271.33L486.65 270.76L487.7 270.19L488.75 269.65L489.81 269.12L490.87 268.61L491.93 268.11L493 267.63L494.07 267.17L495.14 266.73L496.22 266.31L497.3 265.91L498.38 265.52L499.47 265.16L500.32 265.16L500.29 265.16L500.26 265.16L500.23 265.15L500.2 265.15L500.18 265.14L500.15 265.14L500.13 265.13L500.11 265.12L500.09 265.11L500.07 265.09L500.05 265.08L500.03 265.07L500.01 265.06L499.99 265.04L499.97 265.03L499.96 265.01L499.94 265L499.92 264.98L499.91 264.96L499.88 264.93L499.86 264.92L499.84 264.9L499.83 264.88L499.81 264.87L499.79 264.85L499.78 264.84L499.76 264.83L499.74 264.81L499.72 264.8L499.7 264.79L499.68 264.78L499.66 264.77L499.63 264.76L499.61 264.75L499.58 264.75L499.56 264.74L499.53 264.74L499.5 264.74L499.47 264.73L499.41 264.7L499.35 264.66L499.3 264.63L499.26 264.58L499.22 264.54L499.19 264.49L499.17 264.45L499.15 264.4L499.13 264.35L499.12 264.29L499.11 264.24L499.11 264.19L499.12 264.14L499.12 264.08L499.14 264.03L499.15 263.98L499.17 263.92L499.2 263.87L499.22 263.82L499.25 263.77L499.29 263.73L499.32 263.68L499.36 263.64L499.4 263.6L499.45 263.56L499.5 263.52L499.55 263.49L499.6 263.46L499.65 263.44L499.71 263.41L499.76 263.4L499.82 263.38L499.88 263.37L499.94 263.37L500 263.37L500.07 263.38ZM496.05 364.95L495.88 364.99L495.63 365L494.73 365.32L493.11 365.96L492.21 366.28L492.22 366.59L492.27 366.81L492.39 366.88L492.64 366.71L493.89 366.78L494.99 366.97L495.76 367.25L496.05 367.56L496.12 367.5L496.27 367.4L496.41 367.38L496.48 367.56L496.48 367.99L497.12 367.73L498.4 367.39L499.04 367.13L497.12 365.21L496.48 364.57L496.23 364.82L496.05 364.95ZM479.1 364.64L478.83 364.79L478.71 364.87L478.52 364.93L478.13 365L478.2 365.24L478.35 365.32L478.49 365.24L478.56 365L478.63 364.93L478.71 364.87L479.45 364.64L479.84 364.57L479.41 364.57L479.1 364.64ZM419.47 358.55L418.51 359.06L417.55 359.45L420.11 359.45L420.43 359.06L420.75 358.55L421.07 357.95L421.39 357.32L420.43 357.95L419.47 358.55ZM471.09 355.24L471.88 356.65L472.59 358.17L472.59 356.89L471.88 355.87L470.31 353.65L469.6 352.63L470.31 353.91L471.09 355.24ZM443.3 342.07L442.46 342.96L441.59 343.83L440.7 344.67L439.79 345.47L438.88 346.23L438.72 346.25L438.6 346.32L438.5 346.43L438.41 346.57L438.31 346.73L438.19 346.9L438.03 347.08L437.5 348.15L437.01 349.19L436.55 350.2L436.09 351.21L435.63 352.22L435.14 353.26L434.82 353.92L434.78 353.95L434.7 354.05L434.64 354.18L434.61 354.33L434.82 353.92L434.87 353.86L434.95 353.76L435.02 353.64L435.04 353.48L436.48 351.63L437.88 349.74L439.26 347.83L440.63 345.91L442.01 344L443.41 342.11L444.85 340.25L444.1 341.17L443.3 342.07ZM423.7 339.6L422.95 340.18L422.16 340.74L421.33 341.27L420.49 341.78L419.63 342.27L418.79 342.76L417.97 343.24L417.55 343.24L416.91 344.04L414.99 346.44L414.35 347.24L412.43 349.64L412.27 350.1L412.11 350.53L411.95 350.92L411.79 351.29L411.63 351.65L411.47 351.98L411.31 352.31L411.15 352.63L411.4 352.37L412 351.77L413.12 350.34L414.25 348.91L415.4 347.5L416.59 346.12L417.81 344.78L419.08 343.49L420.41 342.27L421.81 341.11L422.13 340.97L422.45 340.87L422.75 340.81L423.04 340.79L423.31 340.81L423.55 340.87L423.77 340.97L423.95 341.11L424.11 340.93L424.26 340.71L424.4 340.47L424.53 340.2L424.64 339.91L424.73 339.61L424.78 339.29L424.8 338.97L424.37 338.97L423.7 339.6ZM428.33 340.57L428.05 340.89L427.86 341.21L427.79 341.53L428.17 341.21L429.11 340.57L429.49 340.25L428.64 340.25L428.33 340.57ZM463.03 330.31L464.16 332.52L465.36 334.69L466.62 336.84L467.89 338.97L468.11 339.22L468.32 339.51L468.75 340.14L468.96 340.44L469.17 340.68L467.89 338.12L466.6 335.58L465.28 333.05L463.93 330.57L462.53 328.13L461.07 325.75L461.99 328.06L463.03 330.31ZM436.04 332.25L435.47 332.57L434.61 332.57L433.42 334.11L432.43 335.56L431.67 337.01L431.2 338.55L432.73 336.95L435.64 333.75L437.17 332.15L437.24 332.07L437.39 331.88L437.53 331.61L437.6 331.29L437.03 331.61L436.04 332.25ZM422.99 337.37L422.67 337.69L422.99 337.44L423.63 337.09L423.95 336.84L423.95 336.41L423.31 337.05L422.99 337.37ZM447.04 327.08L446.99 327.21L446.99 327.45L447.23 327.45L447.36 327.4L447.41 327.27L447.41 327.03L447.17 327.03L447.04 327.08ZM438.54 322.09L438.03 322.71L437.52 323.26L437.29 323.44L437.01 323.61L436.82 323.79L436.75 324.04L437.39 323.39L437.52 323.26L437.6 323.19L437.85 323.12L437.97 322.97L438.02 322.83L438.03 322.76L438.35 322.37L438.54 322.09L438.67 321.94L439.31 321.05L438.99 321.44L438.54 322.09ZM450.89 322.59L451.19 322.93L451.25 323.19L451.68 322.76L451.61 322.51L451.32 322.16L451.25 321.91L450.83 322.33L450.89 322.59ZM452.04 309.79L451.75 310.13L451.68 310.39L451.61 310.45L451.25 310.81L451.34 310.91L451.68 311.24L452.96 309.96L452.96 309.53L452.11 309.53L452.04 309.79ZM463.21 304.05L463.25 304.15L463.38 304.17L463.63 303.99L463.2 303.99L463.21 304.05ZM466.35 300.36L466.07 300.68L465.76 301L466.19 301.43L466.44 301.35L466.61 301.16L466.79 300.89L467.04 300.57L466.79 300.5L466.67 300.31L466.62 300.03L466.61 299.72L466.54 300.04L466.35 300.36ZM437.53 296.16L437.6 296.73L438.24 297.69L438.88 298.6L439.52 299.43L440.16 300.15L440.48 299.83L440.8 299.56L441.12 299.37L441.44 299.29L441.05 298.59L440.12 297.01L439.73 296.31L439.09 295.74L438.45 295.29L437.81 294.93L437.17 294.6L437.24 295.17L437.53 296.16ZM443.08 299.4L443.15 299.72L443.57 299.72L443.5 299.4L443.31 299.08L443.03 298.76L442.72 298.44L442.79 298.76L443.08 299.4ZM450.13 292.52L451.14 295.03L452.11 297.59L452.43 297.27L452.8 296.95L453.25 296.63L453.81 296.31L452.46 294.07L450.99 291.88L449.43 289.77L447.84 287.77L449.05 290.09L450.13 292.52ZM457.9 296.56L458.03 296.73L458.07 296.91L458.08 297.16L458.33 296.91L458.45 296.73L458.5 296.56L458.51 296.31L458.08 295.88L457.65 296.31L457.9 296.56ZM468.6 287.81L466.88 288.83L465.21 289.96L463.63 291.19L463.37 291.45L463.11 291.73L462.86 292.05L462.6 292.43L462.35 292.89L462.09 293.15L461.83 293.43L461.58 293.75L461.32 294.14L461.07 294.6L462.09 293.84L463.11 293.09L464.14 292.39L465.16 291.75L466.19 291.19L466.49 290.93L466.85 290.68L467.23 290.42L467.59 290.16L467.89 289.91L468.1 289.7L468.25 289.57L468.38 289.51L468.53 289.48L468.75 289.48L472.16 286.07L470.37 286.89L468.6 287.81ZM460.86 293.74L460.64 293.75L460.64 294.17L460.71 293.92L460.86 293.74L460.89 293.74L461.01 293.69L461.06 293.57L461.07 293.32L461 293.57L460.86 293.74ZM440.65 274.06L440.72 274.18L440.8 274.3L440.9 274.42L441.01 274.55L442.79 276.24L444.54 277.98L446.24 279.77L447.89 281.61L449.49 283.51L451.03 285.45L452.49 287.45L453.87 289.5L455.17 291.6L456.37 293.75L456.8 293.32L455.38 291.14L453.92 288.95L452.43 286.77L450.88 284.63L449.28 282.55L447.61 280.54L445.88 278.63L444.06 276.84L442.16 275.19L440.65 274.06L440.59 273.96L440.52 273.87L440.45 273.8L440.37 273.74L440.28 273.71L440.16 273.69L440.65 274.06L440.65 274.06ZM426.08 284.82L427.36 286.87L428.64 288.83L429.92 290.76L428.95 288.59L427.95 286.55L426.86 284.58L425.65 282.65L424.8 282.65L426.08 284.82ZM440.85 285L440.49 285.32L440.16 285.64L441.44 286.68L442.72 287.88L444 289.24L445.28 290.76L444.57 289.16L443.73 287.56L442.82 285.96L441.87 284.36L441.3 284.68L440.85 285ZM428.43 283.44L429.71 285.71L430.35 286.92L430.6 286.85L430.77 286.65L430.95 286.38L431.2 286.07L430.95 285.49L430.6 284.51L430.35 283.93L429.78 283.55L429.33 283.08L428.97 282.61L428.64 282.23L427.79 282.23L428.43 283.44ZM474.64 283.85L474.19 284.15L472.27 285.43L471.31 286.07L471.95 285.75L472.59 285.43L473.23 285.11L473.87 284.79L474.19 284.41L474.51 283.99L474.64 283.85L475.15 283.51L474.83 283.65L474.64 283.85ZM493.75 283.72L494 283.57L494.26 283.44L494.52 283.29L494.77 283.08L496.06 281.8L497.36 280.55L498.7 279.33L500.11 278.18L501.6 277.11L502.06 276.6L502.45 276.11L502.77 275.66L503.05 275.28L503.31 274.97L493.07 283.93L493.49 283.93L493.75 283.72ZM434.67 278.01L434.15 278.31L433.76 278.81L434.97 278.88L436.05 279.03L437.06 279.17L438.03 279.24L437.45 278.67L436.96 278.23L436.47 277.86L435.89 277.53L435.26 277.79L434.67 278.01ZM421.92 278.24L422.24 278.81L422.16 278.42L421.92 277.91L421.52 277.31L420.96 276.68L421.28 277.25L421.92 278.24ZM418.33 276.81L418.4 277.11L418.65 277.49L419 278.43L419.25 278.81L418.93 277.93L418.56 277.16L418.33 276.81L418.33 276.79L418.13 276.47L417.86 276.15L417.55 275.83L418.11 276.47L418.33 276.81ZM494.38 272.21L491.89 273.37L489.48 274.75L487.16 276.3L484.96 277.96L485.39 277.96L486.48 277.32L487.63 276.68L489.97 275.4L491.11 274.76L492.21 274.12L492.43 273.94L492.64 273.84L492.85 273.8L493.07 273.84L493.28 273.94L493.49 274.12L494.53 273.48L495.52 272.86L496.48 272.25L497.44 271.69L498.43 271.17L499.47 270.71L496.91 271.3L494.38 272.21ZM422.24 274.6L422.71 275.19L423.09 275.83L423.1 275.51L423.15 275.19L423.27 274.87L423.52 274.55L423.13 274.47L422.61 274.28L422.02 274.01L421.39 273.69L421.77 274.09L422.24 274.6ZM512.98 274.87L512.23 275.15L511.84 275.4L511.84 275.83L512.17 275.51L512.53 275.19L512.98 274.87L513.16 274.8L513.55 274.55L512.98 274.87L512.98 274.87ZM414.83 270.87L415.74 272.34L416.69 273.69L417.33 274.33L417.65 274.65L417.97 274.97L417.65 274.08L417.01 272.45L416.69 271.56L416.69 271.13L415.97 270.37L415.73 269.48L415.97 268.67L416.69 268.15L415.8 268.08L414.17 267.79L413.28 267.72L413.99 269.31L414.83 270.87ZM514.12 273.01L513.55 273.27L513.93 273.2L514.87 272.91L515.25 272.84L515.5 272.77L515.63 272.63L515.67 272.48L515.68 272.41L515.11 272.67L514.12 273.01ZM429.39 269.48L429.31 270.07L429.07 270.71L429.49 271.13L431.33 271.53L433.01 272.04L434.53 272.63L435.89 273.27L436.29 272.71L436.8 272.36L437.39 272.25L438.03 272.41L435.79 271.21L433.55 270.17L431.31 269.29L429.07 268.57L429.31 268.97L429.39 269.48ZM521.47 270.6L521.6 270.92L521.65 271.24L521.65 271.56L522.3 271.23L522.99 270.87L523.75 270.42L524.64 269.85L523.75 269.6L522.12 269.25L521.23 269L521.23 270.28L521.47 270.6ZM510.08 270.87L510.13 271.06L510.13 271.13L510.45 271.07L511.09 270.77L511.41 270.71L511.03 270.64L510.09 270.35L509.71 270.28L509.95 270.59L510.08 270.87ZM512.48 268.63L514.4 268.84L516.32 268.81L518.24 268.57L516.32 268.01L514.4 267.61L512.48 267.37L510.56 267.29L510.56 268.15L512.48 268.63Z" id="bxD50zj1n"></path></defs><g><g><g><use xlink:href="#bXaX4odNx" opacity="1" fill="url(#gradientbc0Kbdh6)"></use></g><g><use xlink:href="#brLfMrt2k" opacity="1" fill="#ffffff" fill-opacity="1"></use><g><use xlink:href="#brLfMrt2k" opacity="1" fill-opacity="0" stroke="#000000" stroke-width="1" stroke-opacity="0"></use></g></g><g><use xlink:href="#bxD50zj1n" opacity="1" fill="#ffffff" fill-opacity="1"></use><g><use xlink:href="#bxD50zj1n" opacity="1" fill-opacity="0" stroke="#000000" stroke-width="1" stroke-opacity="0"></use></g></g></g></g></svg>