<?xml version="1.0" encoding="UTF-8" standalone="no"?>
<!DOCTYPE svg PUBLIC "-//W3C//DTD SVG 1.1//EN" "http://www.w3.org/Graphics/SVG/1.1/DTD/svg11.dtd">
<svg version="1.1" xmlns="http://www.w3.org/2000/svg" xmlns:xlink="http://www.w3.org/1999/xlink" preserveAspectRatio="xMidYMid meet" viewBox="0 0 640 640" width="140" height="140"><defs><path d="M640 320C640 496.61 496.61 640 320 640C143.39 640 0 496.61 0 320C0 143.39 143.39 0 320 0C496.61 0 640 143.39 640 320Z" id="f2WJoz03I"></path><linearGradient id="gradientjw6q2dDGl" gradientUnits="userSpaceOnUse" x1="148.99" y1="56.52" x2="495.36" y2="590.72"><stop style="stop-color: #5eddde;stop-opacity: 1" offset="0%"></stop><stop style="stop-color: #5982d8;stop-opacity: 1" offset="97.5986551237338%"></stop><stop style="stop-color: #476fc2;stop-opacity: 1" offset="100%"></stop></linearGradient><path d="M107.19 159.03L112.46 159.11L118.43 159.21L125.06 159.34L132.31 159.49L140.15 159.67L148.54 159.87L157.44 160.08L166.83 160.32L176.66 160.57L186.9 160.83L197.5 161.11L208.45 161.4L219.69 161.7L231.2 162.01L242.94 162.32L254.87 162.64L266.96 162.96L279.16 163.29L291.45 163.61L303.79 163.93L316.15 164.25L328.47 164.57L340.74 164.88L352.92 165.18L364.96 165.47L376.84 165.74L388.51 166.01L399.95 166.26L411.1 166.49L421.95 166.71L432.46 166.91L442.58 167.09L452.28 167.24L461.52 167.37L470.28 167.47L478.51 167.55L486.18 167.59L493.25 167.61L493.77 167.6L494.49 167.58L495.4 167.55L496.48 167.5L497.72 167.45L499.12 167.38L500.66 167.31L502.33 167.23L504.11 167.15L506.01 167.06L508.01 166.98L510.09 166.89L512.25 166.8L514.47 166.71L516.75 166.62L519.07 166.54L521.43 166.47L523.8 166.4L526.19 166.34L528.58 166.29L530.96 166.25L533.31 166.22L535.64 166.2L537.92 166.2L540.15 166.22L542.31 166.25L544.39 166.3L546.39 166.37L548.3 166.46L550.09 166.57L551.76 166.71L553.31 166.87L554.71 167.06L555.96 167.27L557.05 167.51L557.97 167.79L558.7 168.09L559.23 168.43L559.56 168.8L559.67 169.21L559.66 169.63L559.64 170.05L559.6 170.46L559.54 170.87L559.46 171.27L559.37 171.67L559.27 172.06L559.15 172.44L559.02 172.82L558.87 173.19L558.71 173.56L558.53 173.91L558.34 174.26L558.14 174.6L557.92 174.93L557.7 175.25L557.46 175.57L557.21 175.87L556.95 176.16L556.67 176.45L556.39 176.72L556.1 176.98L555.79 177.23L555.48 177.47L555.16 177.7L554.83 177.91L554.49 178.11L554.14 178.3L553.78 178.48L553.42 178.64L553.05 178.79L552.67 178.92L552.28 179.04L551.89 179.15L551.5 179.24L551.09 179.31L550.69 179.37L550.27 179.41L549.85 179.44L549.43 179.45L523.83 179.45L523.83 397.81L523.78 400.35L523.63 402.85L523.38 405.33L523.03 407.78L522.58 410.2L522.05 412.58L521.42 414.93L520.7 417.23L519.89 419.5L519 421.73L518.03 423.91L516.97 426.05L515.84 428.14L514.63 430.18L513.34 432.17L511.98 434.1L510.55 435.98L509.04 437.8L507.47 439.56L505.84 441.26L504.14 442.9L502.38 444.47L500.56 445.97L498.68 447.4L496.74 448.76L494.76 450.05L492.72 451.26L490.63 452.4L488.49 453.45L486.31 454.43L484.08 455.32L481.81 456.12L479.5 456.84L477.16 457.47L474.77 458.01L472.36 458.45L469.91 458.8L467.43 459.05L464.93 459.2L462.39 459.25L334.39 459.25L334.39 517.37L426.54 517.37L427.01 517.38L427.55 517.4L428.16 517.44L428.85 517.5L429.6 517.57L430.4 517.66L431.26 517.77L432.18 517.89L433.13 518.02L434.13 518.17L435.16 518.33L436.23 518.51L437.32 518.7L438.43 518.9L439.56 519.12L440.7 519.34L441.85 519.58L443.01 519.83L444.16 520.09L445.31 520.37L446.44 520.65L447.57 520.94L448.67 521.25L449.74 521.56L450.79 521.88L451.8 522.21L452.78 522.55L453.71 522.9L454.59 523.26L455.43 523.62L456.2 523.99L456.91 524.37L457.56 524.75L458.13 525.15L458.63 525.54L459.05 525.95L459.39 526.35L459.63 526.77L459.78 527.18L459.83 527.61L459.82 528.03L459.8 528.45L459.76 528.86L459.7 529.27L459.62 529.67L459.53 530.07L459.43 530.46L459.31 530.84L459.18 531.22L459.03 531.59L458.87 531.96L458.69 532.31L458.5 532.66L458.3 533L458.08 533.33L457.86 533.65L457.62 533.97L457.37 534.27L457.11 534.56L456.83 534.85L456.55 535.12L456.26 535.38L455.95 535.63L455.64 535.87L455.32 536.1L454.99 536.31L454.65 536.51L454.3 536.7L453.94 536.88L453.58 537.04L453.21 537.19L452.83 537.32L452.44 537.44L452.05 537.55L451.66 537.64L451.25 537.71L450.85 537.77L450.43 537.81L450.01 537.84L449.59 537.85L447.45 537.84L444.81 537.82L441.69 537.78L438.12 537.73L434.12 537.66L429.73 537.58L424.98 537.5L419.87 537.4L414.45 537.29L408.74 537.17L402.76 537.05L396.55 536.91L390.12 536.77L383.51 536.63L376.74 536.48L369.84 536.33L362.83 536.17L355.75 536.01L348.61 535.85L334.27 535.52L327.13 535.36L320.05 535.2L313.04 535.05L306.14 534.89L299.37 534.74L292.76 534.6L286.33 534.46L280.12 534.33L274.14 534.2L268.43 534.08L263.01 533.97L257.91 533.88L253.15 533.79L248.76 533.71L244.76 533.65L241.19 533.59L238.07 533.56L235.43 533.53L233.29 533.52L232.8 533.52L232.2 533.52L231.48 533.52L230.66 533.51L229.74 533.5L228.73 533.49L227.63 533.47L226.46 533.45L225.21 533.43L223.9 533.4L222.53 533.36L221.11 533.32L219.65 533.27L218.15 533.21L216.62 533.14L215.07 533.07L213.5 532.99L211.92 532.9L210.34 532.8L208.76 532.69L207.19 532.57L205.64 532.43L204.11 532.29L202.62 532.13L201.16 531.96L199.75 531.78L198.39 531.59L197.08 531.38L195.85 531.16L194.68 530.92L193.59 530.66L192.59 530.39L191.68 530.11L190.87 529.81L190.17 529.48L189.57 529.15L189.1 528.79L188.76 528.42L188.54 528.02L188.47 527.61L188.48 527.18L188.51 526.77L188.55 526.35L188.61 525.95L188.68 525.54L188.77 525.15L188.87 524.75L188.99 524.37L189.13 523.99L189.28 523.62L189.44 523.26L189.62 522.9L189.8 522.55L190.01 522.21L190.22 521.88L190.45 521.56L190.69 521.25L190.94 520.94L191.2 520.65L191.47 520.37L191.75 520.09L192.05 519.83L192.35 519.58L192.66 519.34L192.99 519.12L193.32 518.9L193.66 518.7L194.01 518.51L194.36 518.33L194.73 518.17L195.1 518.02L195.48 517.89L195.86 517.77L196.25 517.66L196.65 517.57L197.05 517.5L197.46 517.44L197.87 517.4L198.29 517.38L198.71 517.37L313.91 517.37L313.91 459.25L311.42 459.04L308.97 458.83L306.57 458.63L304.21 458.43L301.91 458.24L299.65 458.06L297.43 457.87L295.27 457.7L293.15 457.53L291.08 457.36L289.05 457.2L287.07 457.05L285.14 456.9L283.26 456.76L281.42 456.62L279.63 456.49L277.88 456.36L276.19 456.24L274.54 456.12L272.94 456.01L271.38 455.91L269.87 455.81L268.41 455.71L266.99 455.62L265.63 455.54L264.31 455.46L263.03 455.39L261.8 455.32L260.62 455.26L259.49 455.2L258.41 455.15L257.37 455.11L256.37 455.07L255.43 455.03L254.53 455L253.68 454.98L252.87 454.96L252.12 454.94L251.41 454.94L250.74 454.93L185.91 459.25L183.38 459.2L180.87 459.05L178.4 458.8L175.95 458.45L173.53 458.01L171.15 457.47L168.8 456.84L166.49 456.12L164.22 455.32L162 454.43L159.81 453.45L157.68 452.4L155.59 451.26L153.55 450.05L151.56 448.76L149.63 447.4L147.75 445.97L145.93 444.47L144.17 442.9L142.47 441.26L140.83 439.56L139.26 437.8L137.76 435.98L136.33 434.1L134.97 432.17L133.68 430.18L132.47 428.14L131.33 426.05L130.27 423.91L129.3 421.73L128.41 419.5L127.6 417.23L126.89 414.93L126.26 412.58L125.72 410.2L125.28 407.78L124.93 405.33L124.68 402.85L124.52 400.35L124.47 397.81L124.47 179.45L98.87 179.45L98.45 179.44L98.03 179.41L97.62 179.37L97.21 179.31L96.81 179.24L96.41 179.15L96.02 179.04L95.64 178.92L95.26 178.79L94.89 178.64L94.52 178.48L94.17 178.3L93.82 178.11L93.48 177.91L93.15 177.7L92.82 177.47L92.51 177.23L92.21 176.98L91.91 176.72L91.63 176.45L91.36 176.16L91.1 175.87L90.85 175.57L90.61 175.25L90.38 174.93L90.17 174.6L89.96 174.26L89.78 173.91L89.6 173.56L89.44 173.19L89.29 172.82L89.15 172.44L89.03 172.06L88.93 171.67L88.84 171.27L88.77 170.87L88.71 170.46L88.67 170.05L88.64 169.63L88.63 169.21L88.64 168.78L88.67 168.37L88.71 167.95L88.77 167.55L88.84 167.14L88.93 166.75L89.03 166.35L89.15 165.97L89.29 165.59L89.44 165.22L89.6 164.86L89.78 164.5L89.96 164.15L90.17 163.81L90.38 163.48L90.61 163.16L90.85 162.85L91.1 162.54L91.36 162.25L91.63 161.97L91.91 161.69L92.21 161.43L92.51 161.18L92.82 160.94L93.15 160.72L93.48 160.5L93.82 160.3L94.17 160.11L94.52 159.93L94.89 159.77L95.26 159.62L95.64 159.49L96.02 159.37L96.41 159.26L96.81 159.17L97.21 159.1L97.62 159.04L98.03 159L98.45 158.98L98.87 158.97L102.65 158.98L107.19 159.03ZM144.95 397.81L144.99 399.5L145.09 401.17L145.26 402.83L145.49 404.46L145.78 406.07L146.14 407.66L146.56 409.22L147.04 410.76L147.58 412.27L148.17 413.76L148.82 415.21L149.52 416.64L150.28 418.03L151.09 419.39L151.95 420.72L152.86 422.01L153.81 423.26L154.81 424.47L155.86 425.65L156.95 426.78L158.08 427.87L159.26 428.91L160.47 429.92L161.72 430.87L163.01 431.78L164.34 432.64L165.7 433.45L167.09 434.2L168.51 434.91L169.97 435.56L171.45 436.15L172.97 436.69L174.51 437.17L176.07 437.58L177.66 437.94L179.27 438.24L180.9 438.47L182.55 438.64L184.22 438.74L185.91 438.77L462.39 438.77L464.08 438.74L465.75 438.64L467.4 438.47L469.04 438.24L470.65 437.94L472.24 437.58L473.8 437.17L475.34 436.69L476.85 436.15L478.34 435.56L479.79 434.91L481.22 434.2L482.61 433.45L483.97 432.64L485.29 431.78L486.58 430.87L487.84 429.92L489.05 428.91L490.22 427.87L491.36 426.78L492.45 425.65L493.49 424.47L494.49 423.26L495.45 422.01L496.36 420.72L497.22 419.39L498.02 418.03L498.78 416.64L499.48 415.21L500.13 413.76L500.73 412.27L501.26 410.76L501.74 409.22L502.16 407.66L502.52 406.07L502.82 404.46L503.05 402.83L503.22 401.17L503.32 399.5L503.35 397.81L503.35 179.45L144.95 179.45L144.95 397.81Z" id="aOk1dS3PV"></path><path d="M274.01 209.64L277.73 210.02L281.39 210.55L284.98 211.23L288.5 212.05L291.95 213L295.33 214.09L298.63 215.32L301.86 216.67L305.02 218.15L308.09 219.76L311.08 221.49L313.99 223.33L316.81 225.29L319.55 227.36L322.19 229.54L324.75 231.82L327.21 234.21L329.58 236.7L331.85 239.28L334.03 241.96L336.1 244.73L338.07 247.59L339.93 250.53L341.69 253.55L343.34 256.65L344.88 259.83L346.31 263.08L347.63 266.4L348.82 269.79L349.9 273.24L350.87 276.75L351.7 280.32L352.42 283.94L353.01 287.61L353.47 291.34L353.8 295.11L354 298.92L354.07 302.77L354 306.62L353.8 310.43L353.47 314.2L353.01 317.93L352.42 321.6L351.7 325.23L350.87 328.79L349.9 332.3L348.82 335.76L347.63 339.14L346.31 342.46L344.88 345.71L343.34 348.89L341.69 351.99L339.93 355.01L338.07 357.95L336.1 360.81L334.03 363.58L331.85 366.26L329.58 368.84L327.21 371.33L324.75 373.72L322.19 376L319.55 378.18L316.81 380.25L313.99 382.21L311.08 384.05L308.09 385.78L305.02 387.39L301.86 388.87L298.63 390.22L295.33 391.45L291.95 392.54L288.5 393.49L284.98 394.31L281.39 394.99L277.73 395.52L274.01 395.9L270.23 396.13L266.39 396.21L262.54 396.13L258.73 395.89L254.96 395.51L251.24 394.97L247.57 394.29L243.95 393.48L240.38 392.52L236.87 391.42L233.42 390.2L230.04 388.84L226.72 387.36L223.47 385.75L220.3 384.02L217.2 382.18L214.17 380.22L211.23 378.15L208.38 375.97L205.61 373.69L202.93 371.3L200.35 368.81L197.86 366.23L195.48 363.55L193.19 360.78L191.01 357.93L188.94 354.99L186.98 351.97L185.14 348.87L183.41 345.69L181.8 342.44L180.32 339.12L178.97 335.74L177.74 332.29L176.65 328.78L175.69 325.21L174.87 321.59L174.19 317.92L173.66 314.2L173.27 310.43L173.03 306.62L172.95 302.77L173.03 298.92L173.26 295.11L173.64 291.34L174.17 287.61L174.85 283.94L175.67 280.32L176.62 276.75L177.72 273.24L178.94 269.79L180.29 266.4L181.78 263.08L183.38 259.83L185.11 256.65L186.95 253.55L188.91 250.53L190.98 247.59L193.16 244.73L195.44 241.96L197.83 239.28L200.32 236.7L202.9 234.21L205.58 231.82L208.35 229.54L211.21 227.36L214.15 225.29L217.17 223.33L220.27 221.49L223.45 219.76L226.7 218.15L230.02 216.67L233.41 215.32L236.86 214.09L240.37 213L243.94 212.05L247.56 211.23L251.24 210.55L254.96 210.02L258.73 209.64L262.54 209.41L266.39 209.33L270.23 209.41L274.01 209.64ZM277.9 305.24L277.88 305.66L277.84 306.07L277.78 306.48L277.7 306.88L277.61 307.28L277.51 307.67L277.39 308.06L277.26 308.43L277.11 308.8L276.94 309.17L276.77 309.52L276.58 309.87L276.38 310.21L276.16 310.54L275.94 310.87L275.7 311.18L275.45 311.48L275.19 311.78L274.91 312.06L274.63 312.33L274.34 312.59L274.03 312.84L273.72 313.08L273.4 313.31L273.07 313.52L272.73 313.73L272.38 313.92L272.02 314.09L271.66 314.25L271.29 314.4L270.91 314.54L270.52 314.66L270.13 314.76L269.74 314.85L269.33 314.92L268.92 314.98L268.51 315.02L268.09 315.05L267.67 315.06L194.71 315.16L195.14 317.46L195.65 319.73L196.22 321.98L196.86 324.19L197.56 326.38L198.33 328.53L199.17 330.65L200.07 332.74L201.03 334.8L202.05 336.81L203.13 338.79L204.27 340.74L205.47 342.64L206.73 344.5L208.04 346.32L209.4 348.1L210.82 349.83L212.28 351.52L213.8 353.16L215.37 354.76L216.98 356.3L218.65 357.8L220.35 359.24L222.11 360.64L223.9 361.97L225.74 363.26L227.62 364.49L229.54 365.66L231.49 366.78L233.49 367.83L235.52 368.83L237.59 369.76L239.69 370.63L241.82 371.44L243.98 372.18L246.18 372.86L248.4 373.47L250.65 374.01L252.93 374.48L255.24 374.88L258.22 375.29L261.18 375.57L264.13 375.73L267.07 375.77L269.98 375.7L272.88 375.51L275.74 375.21L278.58 374.79L281.39 374.26L284.16 373.63L286.9 372.89L289.6 372.05L292.26 371.1L294.87 370.06L297.44 368.92L299.96 367.68L302.43 366.34L304.84 364.92L307.19 363.4L309.49 361.8L311.72 360.11L313.88 358.34L315.98 356.48L318.01 354.54L319.96 352.53L321.83 350.43L323.63 348.27L325.35 346.03L326.98 343.72L328.52 341.34L329.98 338.89L331.34 336.38L332.61 333.81L333.78 331.17L334.85 328.48L335.82 325.73L336.68 322.92L337.43 320.06L338.07 317.15L338.6 314.19L339 311.22L339.29 308.25L339.45 305.3L339.49 302.36L339.42 299.45L339.23 296.56L338.92 293.69L338.51 290.85L337.98 288.04L337.35 285.27L336.61 282.53L335.77 279.83L334.82 277.17L333.78 274.56L332.64 271.99L331.4 269.47L330.06 267L328.64 264.59L327.12 262.24L325.52 259.95L323.83 257.71L322.05 255.55L320.2 253.45L318.26 251.43L316.24 249.47L314.15 247.6L311.98 245.8L309.74 244.08L307.43 242.45L305.06 240.91L302.61 239.45L300.1 238.09L297.52 236.82L294.89 235.65L292.2 234.58L289.45 233.62L286.64 232.76L283.78 232L280.87 231.36L277.91 230.83L277.91 304.82L277.9 305.24ZM252.46 231.12L250.02 231.64L247.61 232.24L245.24 232.91L242.89 233.67L240.59 234.5L238.32 235.4L236.09 236.38L233.9 237.43L231.75 238.54L229.64 239.73L227.58 240.98L225.56 242.3L223.59 243.68L221.67 245.12L219.8 246.63L217.99 248.19L216.22 249.81L214.51 251.49L212.85 253.22L211.25 255.01L209.71 256.85L208.23 258.74L206.81 260.68L205.46 262.66L204.17 264.69L202.94 266.77L201.79 268.89L200.7 271.06L199.68 273.26L198.73 275.5L197.85 277.78L197.05 280.1L196.33 282.45L195.68 284.84L195.11 287.25L194.62 289.7L194.22 292.18L193.89 294.68L257.43 294.68L257.43 230.32L254.93 230.68L252.46 231.12Z" id="g1G16P13y9"></path><path d="M377.46 263.56L473.98 263.56L473.98 276.53L440.85 273.64L377.46 276.53L377.46 263.56Z" id="b3qdp0OWae"></path><path d="M377.46 312.88L473.98 312.88L473.98 325.84L440.85 322.96L377.46 325.84L377.46 312.88Z" id="b3uCDlViUY"></path></defs><g><g><g><use xlink:href="#f2WJoz03I" opacity="1" fill="url(#gradientjw6q2dDGl)"></use></g><g><use xlink:href="#aOk1dS3PV" opacity="1" fill="#ffffff" fill-opacity="1"></use><g><use xlink:href="#aOk1dS3PV" opacity="1" fill-opacity="0" stroke="#000000" stroke-width="1" stroke-opacity="0"></use></g></g><g><use xlink:href="#g1G16P13y9" opacity="1" fill="#ffffff" fill-opacity="1"></use><g><use xlink:href="#g1G16P13y9" opacity="1" fill-opacity="0" stroke="#000000" stroke-width="1" stroke-opacity="0"></use></g></g><g><use xlink:href="#b3qdp0OWae" opacity="1" fill="#ffffff" fill-opacity="1"></use></g><g><use xlink:href="#b3uCDlViUY" opacity="1" fill="#ffffff" fill-opacity="1"></use></g></g></g></svg>